<svg width="17" height="16" viewBox="0 0 17 16" fill="none" xmlns="http://www.w3.org/2000/svg">
<path fill-rule="evenodd" clip-rule="evenodd" d="M4 1C4 1.55 3.55 2 3 2H2V14H3C3.55 14 4 14.45 4 15C4 15.55 3.55 16 3 16H1C0.45 16 0 15.55 0 15V1C0 0.45 0.45 0 1 0H3C3.55 0 4 0.45 4 1ZM14.0039 3.4248L16.8179 7.4248C17.0679 7.7788 17.0599 8.2538 16.7999 8.5998L13.7999 12.5998C13.6039 12.8618 13.3029 12.9998 12.9989 12.9998C12.7909 12.9998 12.5799 12.9348 12.3999 12.7998C11.9579 12.4688 11.8689 11.8418 12.1999 11.4008L14.0009 8.9998H13.9999H5.9999C5.4479 8.9998 4.9999 8.5528 4.9999 7.9998C4.9999 7.4468 5.4479 6.9998 5.9999 6.9998H13.9999C14.0164 6.9998 14.0317 7.00436 14.0472 7.00895C14.0598 7.01269 14.0724 7.01645 14.0859 7.0178L12.3679 4.5748C12.0499 4.1238 12.1589 3.4998 12.6109 3.1818C13.0619 2.8628 13.6859 2.9728 14.0039 3.4248Z" fill="#8F9BB3"/>
</svg>
