<svg width="152" height="48" viewBox="0 0 152 48" fill="none" xmlns="http://www.w3.org/2000/svg">
<path d="M0 16.3096V0.80957H3.36039V16.0684C3.36039 17.4709 4.0317 18.2257 5.37624 18.2257C5.83412 18.2257 6.31722 18.0915 6.58691 17.9553L6.74795 20.6515C6.10187 20.8946 5.4034 21.0016 4.7321 21.0016C1.74616 20.9997 0 19.3015 0 16.3096Z" fill="#222B45"/>
<path d="M8.5752 2.02115C8.5752 0.888998 9.48902 0 10.7269 0C11.9647 0 12.8785 0.836475 12.8785 1.9414C12.8785 3.12802 11.9919 4.04425 10.7269 4.04425C9.48902 4.04425 8.5752 3.15526 8.5752 2.02115ZM9.03308 6.41555H12.3935V20.8107H9.03308V6.41555Z" fill="#222B45"/>
<path d="M30.9437 12.5627V20.8107H27.5833V12.9926C27.5833 10.4307 26.3203 9.19153 24.1686 9.19153C21.7764 9.19153 20.1622 10.6466 20.1622 13.5315V20.8107H16.8018V6.41561H20.0011V8.27531C21.1031 6.95446 22.8512 6.25415 24.9486 6.25415C28.3905 6.25415 30.9437 8.22278 30.9437 12.5627Z" fill="#222B45"/>
<path d="M41.0791 14.6386L38.5782 17.0099V20.811H35.2178V0.80957H38.5782V12.8859L45.5415 6.41589H49.5751L43.5799 12.4541L50.1397 20.811H46.0537L41.0791 14.6386Z" fill="#222B45"/>
<path d="M15.244 35.5736C15.244 40.0478 12.1513 42.9599 7.95862 42.9599C6.13097 42.9599 4.51674 42.3393 3.36039 41.0185V48.0001H0V28.3761H3.19936V30.263C4.32854 28.8877 5.99516 28.2146 7.95862 28.2146C12.1513 28.2146 15.244 31.1267 15.244 35.5736ZM11.8293 35.5736C11.8293 32.8249 10.0016 31.0722 7.58028 31.0722C5.15894 31.0722 3.30607 32.8249 3.30607 35.5736C3.30607 38.3243 5.16088 40.075 7.58028 40.075C9.99969 40.075 11.8293 38.3243 11.8293 35.5736Z" fill="#222B45"/>
<path d="M32.4766 28.3761V42.7712H29.2772V40.9115C28.148 42.2868 26.4814 42.9599 24.518 42.9599C20.3233 42.9599 17.2578 40.0478 17.2578 35.5736C17.2578 31.0995 20.3233 28.2146 24.518 28.2146C26.3456 28.2146 27.9598 28.8352 29.1162 30.1288V28.3761H32.4766ZM29.1705 35.5736C29.1705 32.8249 27.3429 31.0722 24.8963 31.0722C22.4769 31.0722 20.6473 32.8249 20.6473 35.5736C20.6473 38.3243 22.475 40.075 24.8963 40.075C27.3409 40.077 29.1705 38.3243 29.1705 35.5736Z" fill="#222B45"/>
<path d="M45.1946 28.2146V31.4224C44.8997 31.3679 44.6571 31.3407 44.4146 31.3407C41.8594 31.3407 40.2471 32.8502 40.2471 35.7895V42.7712H36.8867V28.3761H40.0861V30.4789C41.0542 28.9694 42.8004 28.2146 45.1946 28.2146Z" fill="#222B45"/>
<path d="M56.1105 41.9912C55.3034 42.6389 54.0947 42.9619 52.884 42.9619C49.739 42.9619 47.9365 41.2909 47.9365 38.1103V25.1975H51.2969V28.487H55.1423V31.1832H51.2969V38.0306C51.2969 39.4331 52.0225 40.1879 53.2856 40.1879C53.9841 40.1879 54.6573 39.9992 55.1676 39.5946L56.1105 41.9912Z" fill="#222B45"/>
<path d="M73.0209 34.5232V42.7712H69.6605V34.9531C69.6605 32.3911 68.3974 31.152 66.2458 31.152C63.8535 31.152 62.2393 32.6071 62.2393 35.4919V42.7712H58.8789V28.3761H62.0783V30.2358C63.1803 28.9149 64.9284 28.2146 67.0257 28.2146C70.4676 28.2146 73.0209 30.1832 73.0209 34.5232Z" fill="#222B45"/>
<path d="M88.1578 38.5402L89.9331 40.6158C88.67 42.1526 86.6523 42.9618 84.1785 42.9618C79.3649 42.9618 76.2471 39.861 76.2471 35.5756C76.2471 31.2901 79.3649 28.2166 83.6411 28.2166C87.6476 28.2166 90.8741 30.9127 90.9013 35.4141L79.9043 37.5714C80.6028 39.2152 82.1627 40.1061 84.26 40.1061C85.8723 40.1042 87.1082 39.5906 88.1578 38.5402ZM79.4988 35.3849V35.4122L87.6185 33.8482C87.1606 32.0955 85.655 30.9108 83.6392 30.9108C81.1945 30.9108 79.4988 32.6362 79.4988 35.3849Z" fill="#222B45"/>
<path d="M102.434 28.2146V31.4224C102.139 31.3679 101.896 31.3407 101.654 31.3407C99.0987 31.3407 97.4864 32.8502 97.4864 35.7895V42.7712H94.126V28.3761H97.3253V30.4789C98.2935 28.9694 100.042 28.2146 102.434 28.2146Z" fill="#222B45"/>
<path d="M103.696 41.3433L104.987 38.7814C106.25 39.6178 108.186 40.2092 109.986 40.2092C112.111 40.2092 112.998 39.6159 112.998 38.618C112.998 35.8673 104.125 38.4565 104.125 32.714C104.125 29.9906 106.572 28.2126 110.444 28.2126C112.353 28.2126 114.53 28.6717 115.82 29.4537L114.53 32.0137C113.159 31.2045 111.789 30.936 110.417 30.936C108.374 30.936 107.406 31.6091 107.406 32.5526C107.406 35.4647 116.278 32.8755 116.278 38.511C116.278 41.2072 113.805 42.9599 109.771 42.9599C107.381 42.9599 104.987 42.2596 103.696 41.3433Z" fill="#222B45"/>
<path d="M71.3062 20.783H79.9847C83.9795 20.783 87.2157 17.5364 87.2157 13.533H84.0338C84.0338 15.772 82.2178 17.5928 79.9847 17.5928H71.3062C69.0731 17.5928 67.2571 15.772 67.2571 13.533H64.0752C64.0733 17.5364 67.3114 20.783 71.3062 20.783Z" fill="#FCBA00"/>
<path d="M71.306 9.47152C73.5391 9.47152 75.3551 11.2923 75.3551 13.5313C75.3551 15.7704 73.5391 17.5911 71.306 17.5911H62.6275C60.3944 17.5911 58.5784 15.7704 58.5784 13.5313C58.5784 11.2923 60.3944 9.47152 62.6275 9.47152H71.306ZM71.306 6.28125H62.6275C58.6327 6.28125 55.3965 9.52793 55.3965 13.5313C55.3965 17.5367 58.6346 20.7814 62.6275 20.7814H71.306C75.3008 20.7814 78.537 17.5347 78.537 13.5313C78.537 9.52793 75.2988 6.28125 71.306 6.28125Z" fill="#222B45"/>
<path d="M71.3062 9.47152H79.9847C82.2178 9.47152 84.0338 11.2923 84.0338 13.5313H87.2157C87.2157 9.52598 83.9776 6.28125 79.9847 6.28125H71.3062C67.3114 6.28125 64.0752 9.52793 64.0752 13.5313H67.2571C67.2551 11.2942 69.0731 9.47152 71.3062 9.47152Z" fill="#FCBA00"/>
</svg>
