<svg width="127" height="40" viewBox="0 0 127 40" fill="none" xmlns="http://www.w3.org/2000/svg">
<path d="M0 13.5913V0.674561H2.8077V13.3902C2.8077 14.559 3.36859 15.188 4.49199 15.188C4.87456 15.188 5.27821 15.0762 5.50354 14.9627L5.63809 17.2095C5.09827 17.4121 4.51468 17.5013 3.95379 17.5013C1.45896 17.4997 0 16.0845 0 13.5913Z" fill="#222B45"/>
<path d="M7.16602 1.6843C7.16602 0.740832 7.92954 0 8.96379 0C9.99803 0 10.7616 0.697062 10.7616 1.61783C10.7616 2.60668 10.0207 3.37021 8.96379 3.37021C7.92954 3.37021 7.16602 2.62938 7.16602 1.6843ZM7.54859 5.3463H10.3563V17.3422H7.54859V5.3463Z" fill="#222B45"/>
<path d="M25.855 10.4688V17.3422H23.0474V10.8271C23.0474 8.69214 21.992 7.65952 20.1943 7.65952C18.1955 7.65952 16.8468 8.87208 16.8468 11.2761V17.3422H14.0391V5.34625H16.7122V6.896C17.633 5.79529 19.0936 5.2117 20.8459 5.2117C23.7217 5.2117 25.855 6.85223 25.855 10.4688Z" fill="#222B45"/>
<path d="M34.323 12.1988L32.2335 14.1748V17.3424H29.4258V0.674561H32.2335V10.7382L38.0515 5.34649H41.4217L36.4126 10.3783L41.8934 17.3424H38.4795L34.323 12.1988Z" fill="#222B45"/>
<path d="M12.7368 29.6446C12.7368 33.3731 10.1528 35.7998 6.64964 35.7998C5.12259 35.7998 3.77386 35.2827 2.8077 34.182V40H0V23.6466H2.67315V25.2191C3.61661 24.073 5.00911 23.5121 6.64964 23.5121C10.1528 23.5121 12.7368 25.9388 12.7368 29.6446ZM9.88367 29.6446C9.88367 27.354 8.35662 25.8934 6.33353 25.8934C4.31043 25.8934 2.76231 27.354 2.76231 29.6446C2.76231 31.9368 4.31205 33.3958 6.33353 33.3958C8.355 33.3958 9.88367 31.9368 9.88367 29.6446Z" fill="#222B45"/>
<path d="M27.1356 23.6466V35.6426H24.4625V34.0928C23.519 35.2389 22.1265 35.7998 20.486 35.7998C16.9812 35.7998 14.4199 33.3731 14.4199 29.6446C14.4199 25.9161 16.9812 23.5121 20.486 23.5121C22.013 23.5121 23.3618 24.0292 24.3279 25.1072V23.6466H27.1356ZM24.3733 29.6446C24.3733 27.354 22.8463 25.8934 20.8021 25.8934C18.7806 25.8934 17.2519 27.354 17.2519 29.6446C17.2519 31.9368 18.779 33.3958 20.8021 33.3958C22.8446 33.3974 24.3733 31.9368 24.3733 29.6446Z" fill="#222B45"/>
<path d="M37.7617 23.5121V26.1852C37.5153 26.1398 37.3127 26.1171 37.1101 26.1171C34.9751 26.1171 33.628 27.3751 33.628 29.8245V35.6426H30.8203V23.6466H33.4935V25.399C34.3024 24.1411 35.7613 23.5121 37.7617 23.5121Z" fill="#222B45"/>
<path d="M46.8823 34.9926C46.2079 35.5324 45.198 35.8015 44.1865 35.8015C41.5587 35.8015 40.0527 34.409 40.0527 31.7585V20.9979H42.8604V23.7391H46.0734V25.9859H42.8604V31.6921C42.8604 32.8609 43.4667 33.4898 44.522 33.4898C45.1056 33.4898 45.6681 33.3326 46.0945 32.9954L46.8823 34.9926Z" fill="#222B45"/>
<path d="M61.0113 28.7692V35.6426H58.2036V29.1275C58.2036 26.9925 57.1483 25.9599 55.3505 25.9599C53.3517 25.9599 52.003 27.1725 52.003 29.5765V35.6426H49.1953V23.6466H51.8685V25.1964C52.7892 24.0957 54.2498 23.5121 56.0022 23.5121C58.878 23.5121 61.0113 25.1526 61.0113 28.7692Z" fill="#222B45"/>
<path d="M73.6588 32.1168L75.1421 33.8465C74.0867 35.1271 72.4008 35.8015 70.334 35.8015C66.3121 35.8015 63.707 33.2175 63.707 29.6463C63.707 26.0751 66.3121 23.5138 69.8849 23.5138C73.2324 23.5138 75.9283 25.7606 75.951 29.5118L66.7627 31.3095C67.3463 32.6793 68.6497 33.4218 70.4021 33.4218C71.7492 33.4202 72.7818 32.9922 73.6588 32.1168ZM66.4239 29.4874V29.5101L73.2081 28.2068C72.8256 26.7462 71.5676 25.759 69.8833 25.759C67.8408 25.759 66.4239 27.1969 66.4239 29.4874Z" fill="#222B45"/>
<path d="M85.586 23.5121V26.1852C85.3396 26.1398 85.1369 26.1171 84.9343 26.1171C82.7993 26.1171 81.4522 27.3751 81.4522 29.8245V35.6426H78.6445V23.6466H81.3177V25.399C82.1266 24.1411 83.5872 23.5121 85.586 23.5121Z" fill="#222B45"/>
<path d="M86.6406 34.4526L87.7186 32.3177C88.774 33.0147 90.3918 33.5076 91.8961 33.5076C93.6712 33.5076 94.412 33.0131 94.412 32.1815C94.412 29.8893 86.9989 32.047 86.9989 27.2616C86.9989 24.9921 89.0431 23.5104 92.2787 23.5104C93.8739 23.5104 95.6927 23.893 96.7707 24.5447L95.6927 26.678C94.5466 26.0036 93.4021 25.7799 92.256 25.7799C90.549 25.7799 89.7401 26.3408 89.7401 27.127C89.7401 29.5538 97.1533 27.3961 97.1533 32.0924C97.1533 34.3392 95.0864 35.7997 91.7162 35.7997C89.719 35.7997 87.7186 35.2162 86.6406 34.4526Z" fill="#222B45"/>
<path d="M59.5788 17.3193H66.8299C70.1677 17.3193 72.8716 14.6138 72.8716 11.2776H70.2131C70.2131 13.1434 68.6957 14.6608 66.8299 14.6608H59.5788C57.713 14.6608 56.1957 13.1434 56.1957 11.2776H53.5371C53.5355 14.6138 56.2411 17.3193 59.5788 17.3193Z" fill="#FCBA00"/>
<path d="M59.5779 7.89308C61.4438 7.89308 62.9611 9.41041 62.9611 11.2763C62.9611 13.1421 61.4438 14.6594 59.5779 14.6594H52.3269C50.461 14.6594 48.9437 13.1421 48.9437 11.2763C48.9437 9.41041 50.461 7.89308 52.3269 7.89308H59.5779ZM59.5779 5.23453H52.3269C48.9891 5.23453 46.2852 7.94009 46.2852 11.2763C46.2852 14.614 48.9907 17.318 52.3269 17.318H59.5779C62.9157 17.318 65.6197 14.6124 65.6197 11.2763C65.6197 7.94009 62.9141 5.23453 59.5779 5.23453Z" fill="#222B45"/>
<path d="M59.5788 7.89305H66.8299C68.6957 7.89305 70.2131 9.41038 70.2131 11.2762H72.8716C72.8716 7.93844 70.1661 5.2345 66.8299 5.2345H59.5788C56.241 5.2345 53.5371 7.94006 53.5371 11.2762H56.1957C56.194 9.412 57.713 7.89305 59.5788 7.89305Z" fill="#FCBA00"/>
</svg>
