<svg width="488" height="308" viewBox="0 0 488 308" fill="none" xmlns="http://www.w3.org/2000/svg">
<g clip-path="url(#clip0_343_3389)">
<path d="M488 246.078H0V247.026H488V246.078Z" fill="#3F3D56"/>
<path d="M442.088 105.814H260.33V280.196H442.088V105.814Z" fill="#FFD339"/>
<path d="M471.906 279.722H247.076V280.67H471.906V279.722Z" fill="#3F3D56"/>
<path d="M367.288 170.586H315.149V231.399H367.288V170.586Z" fill="#F2F2F2"/>
<path d="M387.535 231.906H314.643V158.93H387.535V231.906ZM315.655 230.892H386.523V159.944H315.655V230.892Z" fill="#3F3D56"/>
<path d="M374.373 180.215H329.828V181.228H374.373V180.215Z" fill="#3F3D56"/>
<path d="M374.373 191.364H329.828V192.377H374.373V191.364Z" fill="#3F3D56"/>
<path d="M374.373 202.513H329.828V203.526H374.373V202.513Z" fill="#3F3D56"/>
<path d="M425.048 35.2075H208.479V36.1553H425.048V35.2075Z" fill="#3F3D56"/>
<path d="M164.245 191.109H45.4395V192.057H164.245V191.109Z" fill="#3F3D56"/>
<path d="M177.024 74.5386H6.15332V180.211H177.024V74.5386Z" fill="#FFD339"/>
<path d="M133.952 106.683H28.873V158.886H133.952V106.683Z" fill="#F2F2F2"/>
<path d="M155.251 159.36H28.3994V95.8623H155.251V159.36ZM29.3461 158.413H154.304V96.81H29.3461V158.413Z" fill="#3F3D56"/>
<path d="M115.478 122.36H47.3477V123.307H115.478V122.36Z" fill="#3F3D56"/>
<path d="M115.478 132.311H47.3477V133.259H115.478V132.311Z" fill="#3F3D56"/>
<path d="M115.478 142.262H47.3477V143.21H115.478V142.262Z" fill="#3F3D56"/>
<path d="M221.16 72.4533C215.666 63.1598 204.797 62.7267 204.797 62.7267C204.797 62.7267 194.205 61.3708 187.411 75.5249C181.078 88.7177 172.338 101.456 186.004 104.544L188.472 96.8523L190.001 105.117C191.947 105.257 193.899 105.29 195.848 105.217C210.483 104.744 224.421 105.355 223.972 100.097C223.375 93.1081 226.446 81.3955 221.16 72.4533Z" fill="#2F2E41"/>
<path d="M201.375 89.9552C201.375 89.9552 208.475 99.9064 204.215 107.962C199.955 116.018 214.155 124.547 214.155 124.547L224.568 101.802C224.568 101.802 212.262 93.7462 215.575 86.1643L201.375 89.9552Z" fill="#FBBEBE"/>
<path d="M206.108 94.2199C212.905 94.2199 218.415 88.7038 218.415 81.8994C218.415 75.0949 212.905 69.5789 206.108 69.5789C199.312 69.5789 193.802 75.0949 193.802 81.8994C193.802 88.7038 199.312 94.2199 206.108 94.2199Z" fill="#FBBEBE"/>
<path d="M163.519 96.1418L173.803 82.8576C173.803 82.8576 177.424 68.9331 182.669 69.639C187.914 70.3449 180.597 86.3379 180.597 86.3379L170.379 101.042L163.519 96.1418Z" fill="#FBBEBE"/>
<path d="M215.574 272.867L218.888 290.4L225.987 292.296L224.094 271.446L215.574 272.867Z" fill="#FBBEBE"/>
<path d="M287.047 253.913L299.827 271.446L305.033 273.815L309.293 266.707L296.513 250.122L287.047 253.913Z" fill="#FBBEBE"/>
<path d="M212.734 116.966L204.839 106.56C204.839 106.56 189.541 109.384 188.121 110.805C186.701 112.227 191.908 138.29 191.908 138.29C191.908 138.29 192.855 145.398 197.115 149.188L201.375 152.032L236.401 144.924L237.718 129.321C238.197 123.638 237.486 117.918 235.629 112.526C233.772 107.134 230.811 102.19 226.934 98.011L220.84 98.8451L212.734 116.966Z" fill="#575A89"/>
<path d="M190.014 111.753L187.648 110.805L176.761 109.857C176.761 109.857 172.975 108.91 173.921 107.014C174.868 105.119 175.815 104.645 173.921 104.171C172.028 103.697 171.555 103.223 172.028 101.802C172.501 100.38 175.341 97.537 175.341 97.537L167.295 90.9028C167.295 90.9028 166.859 91.2112 166.155 91.7818C162.16 95.0201 149.519 106.704 158.775 118.387C169.661 132.129 182.441 140.185 192.854 137.342L190.014 111.753Z" fill="#575A89"/>
<path d="M200.428 149.662V156.296C200.428 156.296 196.168 164.352 197.588 171.934C199.008 179.516 199.481 183.307 199.481 183.307C199.635 189.755 200.752 196.144 202.794 202.261C206.108 211.739 195.221 273.815 208.947 274.763C222.674 275.711 230.247 276.658 234.507 271.92C238.767 267.181 227.407 185.676 227.407 185.676C227.407 185.676 266.22 266.707 274.267 263.39C282.313 260.073 302.666 252.491 300.3 248.226C297.933 243.962 238.294 149.188 238.294 149.188L236.4 144.924L200.428 149.662Z" fill="#2F2E41"/>
<path d="M223.148 287.083C223.148 287.083 215.575 286.609 215.575 288.979C215.575 291.348 211.788 299.404 211.788 299.404C211.788 299.404 208.948 308.881 216.522 307.933C224.095 306.986 228.828 298.456 228.828 298.456L226.935 289.453L223.148 287.083Z" fill="#2F2E41"/>
<path d="M302.193 270.498C302.193 270.498 295.566 266.233 296.04 269.076C296.513 271.919 296.986 279.501 300.3 279.975C303.613 280.449 313.553 283.292 314.026 284.24C314.5 285.188 325.859 288.979 325.859 282.818C325.859 276.658 318.76 271.919 318.76 271.919L310.713 265.759C310.713 265.759 305.506 265.285 304.56 268.602C303.613 271.919 302.193 270.498 302.193 270.498Z" fill="#2F2E41"/>
<path d="M206.127 70.6419C210.467 70.6419 213.986 67.1193 213.986 62.774C213.986 58.4286 210.467 54.906 206.127 54.906C201.786 54.906 198.268 58.4286 198.268 62.774C198.268 67.1193 201.786 70.6419 206.127 70.6419Z" fill="#2F2E41"/>
<path d="M197.44 60.7034C197.44 58.7602 198.159 56.8858 199.457 55.4413C200.755 53.9967 202.541 53.0843 204.472 52.8797C204.197 52.8505 203.921 52.8358 203.644 52.8355C202.612 52.8346 201.589 53.0376 200.635 53.4326C199.681 53.8276 198.814 54.4071 198.083 55.1378C197.353 55.8684 196.773 56.7361 196.378 57.6911C195.983 58.646 195.779 59.6697 195.779 60.7034C195.779 61.7372 195.983 62.7608 196.378 63.7158C196.773 64.6707 197.353 65.5384 198.083 66.269C198.814 66.9997 199.681 67.5792 200.635 67.9742C201.589 68.3692 202.612 68.5722 203.644 68.5714C203.921 68.571 204.197 68.5563 204.472 68.5271C202.541 68.3225 200.755 67.4101 199.457 65.9655C198.159 64.521 197.44 62.6466 197.44 60.7034Z" fill="#2F2E41"/>
<path d="M218.73 71.5575L207.992 65.9265L193.163 68.23L190.095 81.7958L197.732 81.502L199.866 76.5179V81.42L203.39 81.284L205.435 73.3492L206.714 81.7958L219.241 81.5399L218.73 71.5575Z" fill="#2F2E41"/>
<path d="M218.088 150.76L201.527 151.208C201.527 151.208 187.397 153.961 188.189 148.251C188.982 142.541 202.768 144.538 202.768 144.538L217.857 142.233L218.088 150.76Z" fill="#FBBEBE"/>
<path d="M231.19 97.2076C232.022 97.0814 232.872 97.2569 233.587 97.7024C234.302 98.1479 234.834 98.8341 235.088 99.6376C238.33 109.866 248.318 144.093 238.394 148.788C226.706 154.319 218.177 154.076 218.177 154.076L213.611 142.823L217.767 138.918L222.205 110.355L224.331 98.2478L231.19 97.2076Z" fill="#575A89"/>
<path opacity="0.4" d="M228.118 116.254L226.225 135.209L209.658 142.317L228.118 138.052V116.254Z" fill="black"/>
<path d="M123.712 229.859C121.021 239.818 111.804 245.986 111.804 245.986C111.804 245.986 106.95 236.007 109.641 226.049C112.332 216.09 121.549 209.923 121.549 209.923C121.549 209.923 126.403 219.901 123.712 229.859Z" fill="#FFD339"/>
<path d="M99.2325 229.859C101.923 239.818 111.14 245.986 111.14 245.986C111.14 245.986 115.994 236.007 113.304 226.049C110.613 216.09 101.396 209.923 101.396 209.923C101.396 209.923 96.5416 219.901 99.2325 229.859Z" fill="#FFD339"/>
<path d="M103.186 227.719C110.57 234.915 111.472 245.977 111.472 245.977C111.472 245.977 100.402 245.372 93.0182 238.176C85.6343 230.98 84.7324 219.918 84.7324 219.918C84.7324 219.918 95.8021 220.523 103.186 227.719Z" fill="#3F3D56"/>
<path d="M119.757 227.719C112.374 234.915 111.472 245.977 111.472 245.977C111.472 245.977 122.541 245.372 129.925 238.176C137.309 230.98 138.211 219.918 138.211 219.918C138.211 219.918 127.141 220.523 119.757 227.719Z" fill="#3F3D56"/>
<path d="M326.769 19.9368C324.078 29.8953 314.862 36.0629 314.862 36.0629C314.862 36.0629 310.007 26.0845 312.698 16.126C315.389 6.16755 324.606 0 324.606 0C324.606 0 329.46 9.97836 326.769 19.9368Z" fill="#FFD339"/>
<path d="M302.289 19.9368C304.98 29.8953 314.197 36.0629 314.197 36.0629C314.197 36.0629 319.051 26.0845 316.36 16.126C313.669 6.16755 304.452 0 304.452 0C304.452 0 299.598 9.97836 302.289 19.9368Z" fill="#FFD339"/>
<path d="M306.244 17.7968C313.627 24.9929 314.529 36.0549 314.529 36.0549C314.529 36.0549 303.46 35.4498 296.076 28.2537C288.692 21.0576 287.79 9.99561 287.79 9.99561C287.79 9.99561 298.86 10.6007 306.244 17.7968Z" fill="#3F3D56"/>
<path d="M322.815 17.7968C315.431 24.9929 314.529 36.0549 314.529 36.0549C314.529 36.0549 325.599 35.4498 332.983 28.2537C340.367 21.0576 341.269 9.99561 341.269 9.99561C341.269 9.99561 330.199 10.6007 322.815 17.7968Z" fill="#3F3D56"/>
</g>
<defs>
<clipPath id="clip0_343_3389">
<rect width="488" height="308" fill="white"/>
</clipPath>
</defs>
</svg>
