<svg width="488" height="274" viewBox="0 0 488 274" fill="none" xmlns="http://www.w3.org/2000/svg">
<g clip-path="url(#clip0_344_3555)">
<path d="M58.1039 11.3888C59.8305 11.3888 61.2302 9.98905 61.2302 8.26243C61.2302 6.53581 59.8305 5.13611 58.1039 5.13611C56.3772 5.13611 54.9775 6.53581 54.9775 8.26243C54.9775 9.98905 56.3772 11.3888 58.1039 11.3888Z" fill="#7D7B8C"/>
<path d="M68.8226 11.3888C70.5493 11.3888 71.949 9.98905 71.949 8.26243C71.949 6.53581 70.5493 5.13611 68.8226 5.13611C67.096 5.13611 65.6963 6.53581 65.6963 8.26243C65.6963 9.98905 67.096 11.3888 68.8226 11.3888Z" fill="#7D7B8C"/>
<path d="M79.5414 11.3888C81.268 11.3888 82.6677 9.98905 82.6677 8.26243C82.6677 6.53581 81.268 5.13611 79.5414 5.13611C77.8147 5.13611 76.415 6.53581 76.415 8.26243C76.415 9.98905 77.8147 11.3888 79.5414 11.3888Z" fill="#7D7B8C"/>
<path d="M376.097 179.317H77.3086V214.6H376.097V179.317Z" fill="#F2F2F2"/>
<path d="M402.67 57.6136H224.916V147.83H402.67V57.6136Z" fill="#F2F2F2"/>
<path d="M256.116 139.568L296.375 72.3521L338.134 139.568" fill="#FFD339"/>
<path d="M317.143 105.179L325.182 84.1875L370.738 139.568H316.92L317.143 105.179Z" fill="#FFD339"/>
<path d="M308.679 96.8383C309.93 96.0724 311.018 95.0675 311.881 93.881C312.744 92.6944 313.364 91.3494 313.707 89.923C314.05 88.4965 314.108 87.0164 313.878 85.5674C313.649 84.1184 313.136 82.7288 312.369 81.4781C311.602 80.2274 310.596 79.14 309.409 78.2782C308.222 77.4164 306.876 76.797 305.45 76.4554C304.023 76.1138 302.543 76.0568 301.094 76.2875C299.645 76.5182 298.256 77.0322 297.006 77.8" fill="#FFD339"/>
<path d="M452.887 201.718C452.538 202.68 452.361 203.697 452.365 204.721C452.35 206.214 452.734 207.685 453.476 208.981C452.747 210.282 452.365 211.749 452.365 213.241C452.365 214.732 452.747 216.199 453.476 217.501C452.747 218.802 452.365 220.269 452.365 221.761C452.365 223.252 452.747 224.719 453.476 226.021C452.747 227.322 452.365 228.789 452.365 230.281C452.365 231.772 452.747 233.239 453.476 234.54C452.734 235.836 452.35 237.307 452.365 238.8C452.365 242.65 454.749 245.771 457.69 245.771C460.63 245.771 463.015 242.65 463.015 238.8C463.029 237.307 462.646 235.836 461.903 234.54C462.632 233.239 463.015 231.772 463.015 230.281C463.015 228.789 462.632 227.322 461.903 226.021C462.632 224.719 463.015 223.252 463.015 221.761C463.015 220.269 462.632 218.802 461.903 217.501C462.632 216.199 463.015 214.732 463.015 213.241C463.015 211.749 462.632 210.282 461.903 208.981C462.646 207.685 463.029 206.214 463.015 204.721C463.018 203.712 462.846 202.709 462.507 201.759" fill="#57B894"/>
<path d="M437.756 129.377C437.029 128.451 436.366 127.475 435.773 126.458L449.765 124.16L434.633 124.272C433.181 121.114 432.389 117.692 432.305 114.217C432.222 110.742 432.848 107.287 434.146 104.062L454.448 114.594L435.724 100.831C437.478 97.7996 439.838 95.1621 442.656 93.0826C445.474 91.0031 448.69 89.5261 452.103 88.7436C455.517 87.9611 459.055 87.8899 462.497 88.5345C465.94 89.1791 469.212 90.5255 472.112 92.4901C475.011 94.4546 477.474 96.995 479.349 99.9532C481.224 102.911 482.469 106.224 483.008 109.684C483.546 113.145 483.366 116.679 482.479 120.067C481.593 123.455 480.018 126.624 477.852 129.377C478.986 130.818 479.962 132.378 480.761 134.028L462.599 143.464L481.965 136.965C483.325 140.984 483.661 145.28 482.943 149.462C482.225 153.644 480.475 157.581 477.852 160.917C480.812 164.679 482.653 169.198 483.165 173.958C483.677 178.717 482.839 183.524 480.748 187.83C478.656 192.135 475.396 195.766 471.339 198.306C467.281 200.846 462.591 202.192 457.804 202.192C453.018 202.192 448.328 200.846 444.27 198.306C440.213 195.766 436.952 192.135 434.861 187.83C432.77 183.524 431.932 178.717 432.444 173.958C432.956 169.198 434.797 164.679 437.756 160.917C434.22 156.421 432.298 150.867 432.298 145.147C432.298 139.427 434.22 133.873 437.756 129.377L437.756 129.377Z" fill="#57B894"/>
<path d="M457.354 201.271C457.005 202.234 456.828 203.25 456.831 204.274C456.817 205.768 457.2 207.238 457.943 208.534C457.214 209.836 456.831 211.302 456.831 212.794C456.831 214.286 457.214 215.752 457.943 217.054C457.214 218.355 456.831 219.822 456.831 221.314C456.831 222.806 457.214 224.272 457.943 225.574C457.214 226.875 456.831 228.342 456.831 229.834C456.831 231.325 457.214 232.792 457.943 234.094C457.2 235.39 456.817 236.86 456.831 238.354C456.831 242.204 459.216 245.324 462.156 245.324C465.097 245.324 467.481 242.203 467.481 238.354C467.496 236.86 467.112 235.39 466.37 234.094C467.099 232.792 467.481 231.325 467.481 229.834C467.481 228.342 467.099 226.875 466.37 225.574C467.099 224.272 467.481 222.806 467.481 221.314C467.481 219.822 467.099 218.355 466.37 217.054C467.099 215.752 467.481 214.286 467.481 212.794C467.481 211.302 467.099 209.836 466.37 208.534C467.112 207.238 467.496 205.768 467.481 204.274C467.485 203.265 467.313 202.263 466.974 201.312" stroke="#3F3D56" stroke-miterlimit="10"/>
<path d="M442.222 128.93C441.495 128.004 440.832 127.029 440.239 126.011L454.231 123.713L439.098 123.826C437.647 120.667 436.855 117.246 436.771 113.771C436.687 110.296 437.314 106.84 438.611 103.615L458.913 114.147L440.19 100.384C441.944 97.353 444.304 94.7155 447.122 92.636C449.94 90.5564 453.155 89.0794 456.569 88.2969C459.983 87.5145 463.521 87.4433 466.963 88.0878C470.405 88.7324 473.678 90.0789 476.577 92.0434C479.477 94.0079 481.94 96.5484 483.815 99.5066C485.689 102.465 486.935 105.777 487.473 109.238C488.012 112.698 487.832 116.232 486.945 119.62C486.058 123.008 484.483 126.177 482.318 128.93C483.452 130.372 484.428 131.931 485.227 133.582L467.065 143.017L486.431 136.518C487.791 140.538 488.127 144.833 487.409 149.015C486.691 153.197 484.941 157.135 482.318 160.47C485.278 164.233 487.119 168.752 487.631 173.511C488.143 178.27 487.305 183.078 485.214 187.383C483.122 191.689 479.862 195.319 475.804 197.859C471.747 200.399 467.057 201.746 462.27 201.746C457.484 201.746 452.793 200.399 448.736 197.859C444.679 195.319 441.418 191.689 439.327 187.383C437.236 183.078 436.398 178.27 436.91 173.511C437.422 168.752 439.263 164.233 442.222 160.47C438.686 155.974 436.764 150.42 436.764 144.7C436.764 138.98 438.686 133.426 442.222 128.93L442.222 128.93Z" stroke="#3F3D56" stroke-miterlimit="10"/>
<path d="M424.778 0.223267H49.6182V244.077H424.778V0.223267Z" stroke="#3F3D56" stroke-miterlimit="10"/>
<path d="M49.6182 13.7715H424.778" stroke="#3F3D56" stroke-miterlimit="10"/>
<path d="M58.9965 10.0489C60.7231 10.0489 62.1228 8.64921 62.1228 6.92259C62.1228 5.19597 60.7231 3.79626 58.9965 3.79626C57.2698 3.79626 55.8701 5.19597 55.8701 6.92259C55.8701 8.64921 57.2698 10.0489 58.9965 10.0489Z" stroke="#3F3D56" stroke-miterlimit="10"/>
<path d="M69.7152 10.0489C71.4418 10.0489 72.8415 8.64921 72.8415 6.92259C72.8415 5.19597 71.4418 3.79626 69.7152 3.79626C67.9886 3.79626 66.5889 5.19597 66.5889 6.92259C66.5889 8.64921 67.9886 10.0489 69.7152 10.0489Z" stroke="#3F3D56" stroke-miterlimit="10"/>
<path d="M80.4349 10.0489C82.1616 10.0489 83.5613 8.64921 83.5613 6.92259C83.5613 5.19597 82.1616 3.79626 80.4349 3.79626C78.7083 3.79626 77.3086 5.19597 77.3086 6.92259C77.3086 8.64921 78.7083 10.0489 80.4349 10.0489Z" stroke="#3F3D56" stroke-miterlimit="10"/>
<path d="M186.283 67.4393H56.7637V76.8183H186.283V67.4393Z" fill="#F2F2F2"/>
<path d="M186.283 89.7701H56.7637V99.1491H186.283V89.7701Z" fill="#F2F2F2"/>
<path d="M186.283 112.101H56.7637V121.48H186.283V112.101Z" fill="#F2F2F2"/>
<path d="M190.749 64.313H61.2295V73.692H190.749V64.313Z" stroke="#3F3D56" stroke-miterlimit="10"/>
<path d="M190.749 86.6438H61.2295V96.0228H190.749V86.6438Z" stroke="#3F3D56" stroke-miterlimit="10"/>
<path d="M190.749 108.975H61.2295V118.354H190.749V108.975Z" stroke="#3F3D56" stroke-miterlimit="10"/>
<path d="M413.165 46.225H235.411V136.442H413.165V46.225Z" stroke="#3F3D56" stroke-miterlimit="10"/>
<path d="M386.592 171.278H87.8037V206.561H386.592V171.278Z" stroke="#3F3D56" stroke-miterlimit="10"/>
<path d="M258.349 136.442L298.608 69.2257L340.367 136.442" stroke="#3F3D56" stroke-miterlimit="10"/>
<path d="M318.482 101.159L326.522 80.1678L372.077 136.442" stroke="#3F3D56" stroke-miterlimit="10"/>
<path d="M311.805 90.5856C313.057 89.8198 314.145 88.8148 315.008 87.6283C315.871 86.4417 316.491 85.0967 316.834 83.6703C317.176 82.2438 317.235 80.7637 317.005 79.3147C316.776 77.8657 316.263 76.4761 315.496 75.2254C314.729 73.9747 313.723 72.8874 312.536 72.0255C311.349 71.1637 310.003 70.5443 308.577 70.2027C307.15 69.8612 305.67 69.8041 304.221 70.0348C302.772 70.2655 301.383 70.7795 300.133 71.5473" stroke="#3F3D56" stroke-miterlimit="10"/>
<path d="M9.42496 192.5C10.9186 192.57 12.4084 192.293 13.7767 191.69C15.145 191.087 16.3545 190.174 17.3099 189.024C18.2654 187.874 18.9405 186.517 19.2822 185.061C19.6239 183.605 19.6228 182.09 19.279 180.635C18.9352 179.18 18.2581 177.824 17.301 176.675C16.3439 175.526 15.1331 174.615 13.7639 174.014C12.3947 173.413 10.9046 173.138 9.411 173.211C7.91742 173.284 6.4612 173.703 5.15712 174.434L6.86282 179.109L3.35348 175.739C1.47161 177.459 0.349713 179.857 0.234339 182.404C0.189914 183.297 0.272329 184.192 0.479126 185.063C0.958852 187.106 2.09169 188.938 3.70597 190.28C5.32026 191.622 7.328 192.401 9.42496 192.5Z" fill="#57B894"/>
<path d="M37.6421 244.09C35.5952 240.3 37.9177 235.655 40.5874 232.275C43.2571 228.895 46.5109 225.377 46.4418 221.071C46.3424 214.881 39.7727 211.226 34.5236 207.945C30.6289 205.51 27.0367 202.622 23.822 199.341C22.5332 198.025 21.2874 196.618 20.5336 194.938C19.4481 192.518 19.4783 189.765 19.5467 187.114C19.7747 178.281 20.2111 169.458 20.8558 160.643" stroke="#3F3D56" stroke-miterlimit="10"/>
<path d="M9.42496 191.16C10.9186 191.231 12.4084 190.953 13.7767 190.35C15.145 189.747 16.3545 188.834 17.3099 187.684C18.2654 186.534 18.9405 185.177 19.2822 183.721C19.6239 182.266 19.6228 180.75 19.279 179.295C18.9352 177.84 18.2581 176.484 17.301 175.335C16.3439 174.186 15.1331 173.275 13.7639 172.674C12.3947 172.073 10.9046 171.798 9.411 171.871C7.91742 171.944 6.4612 172.363 5.15712 173.095L6.86282 177.769L3.35348 174.399C1.47161 176.12 0.349713 178.517 0.234339 181.064C0.189914 181.957 0.272329 182.852 0.479126 183.723C0.958852 185.766 2.09169 187.598 3.70597 188.94C5.32026 190.282 7.328 191.061 9.42496 191.16Z" stroke="#3F3D56" stroke-miterlimit="10"/>
<path d="M10.8777 161.946C10.9528 160.33 11.4336 158.758 12.2758 157.375C13.1181 155.993 14.2946 154.845 15.6972 154.037L17.8585 158.313L17.7934 153.137C19.7566 152.559 21.8529 152.619 23.7795 153.31C25.7061 154 27.3634 155.285 28.5121 156.979C29.6607 158.673 30.2413 160.689 30.1701 162.734C30.0988 164.779 29.3793 166.749 28.1156 168.359C26.8518 169.969 25.1091 171.136 23.1391 171.69C21.169 172.245 19.0736 172.16 17.1554 171.446C15.2372 170.733 13.5953 169.428 12.467 167.72C11.3386 166.013 10.7821 163.991 10.8777 161.946Z" fill="#57B894"/>
<path d="M10.8777 160.16C10.9528 158.543 11.4336 156.971 12.2758 155.589C13.1181 154.207 14.2946 153.059 15.6972 152.251L17.8585 156.526L17.7934 151.35C19.7566 150.772 21.8529 150.833 23.7795 151.523C25.7061 152.214 27.3634 153.499 28.5121 155.193C29.6607 156.887 30.2413 158.902 30.1701 160.947C30.0988 162.993 29.3793 164.963 28.1156 166.573C26.8518 168.183 25.1091 169.349 23.1391 169.904C21.169 170.459 19.0736 170.373 17.1554 169.66C15.2372 168.946 13.5953 167.641 12.467 165.934C11.3386 164.226 10.7821 162.204 10.8777 160.16V160.16Z" stroke="#3F3D56" stroke-miterlimit="10"/>
<path d="M32.9329 208.54C35.3012 208.65 37.6274 207.885 39.4681 206.391C41.3088 204.897 42.5353 202.777 42.9138 200.437C43.2923 198.097 42.7964 195.699 41.5205 193.7C40.2446 191.702 38.2781 190.243 35.9956 189.602L36.0458 193.579L33.8602 189.252C33.8515 189.251 33.8427 189.251 33.8339 189.251C32.5674 189.192 31.3016 189.383 30.1089 189.813C28.9161 190.243 27.8198 190.903 26.8824 191.757C25.945 192.611 25.1849 193.641 24.6456 194.788C24.1062 195.936 23.7982 197.178 23.739 198.445C23.6799 199.711 23.8707 200.977 24.3008 202.17C24.7308 203.363 25.3915 204.459 26.2453 205.396C27.099 206.334 28.129 207.094 29.2765 207.633C30.4239 208.172 31.6664 208.48 32.9329 208.54Z" fill="#57B894"/>
<path d="M32.8587 206.753C35.227 206.864 37.5532 206.099 39.3939 204.605C41.2346 203.11 42.4611 200.991 42.8396 198.651C43.2181 196.31 42.7221 193.912 41.4462 191.914C40.1704 189.916 38.2038 188.457 35.9214 187.815L35.9715 191.793L33.7859 187.466C33.7773 187.465 33.7685 187.464 33.7597 187.464C32.4932 187.405 31.2274 187.596 30.0347 188.026C28.8419 188.456 27.7455 189.117 26.8081 189.971C24.915 191.695 23.7843 194.1 23.6648 196.658C23.6057 197.925 23.7965 199.191 24.2265 200.383C24.6566 201.576 25.3173 202.672 26.171 203.61C27.8952 205.503 30.3009 206.634 32.8587 206.753Z" stroke="#3F3D56" stroke-miterlimit="10"/>
<path d="M28.093 226.835C29.1061 228.804 30.7653 230.364 32.7923 231.254C34.8193 232.145 37.0908 232.311 39.2259 231.726C41.3611 231.14 43.23 229.838 44.5192 228.039C45.8084 226.239 46.4395 224.05 46.3067 221.84C46.1739 219.63 45.2852 217.533 43.7897 215.901C42.2942 214.268 40.2829 213.199 38.093 212.874C35.9031 212.548 33.6678 212.985 31.762 214.112C29.8563 215.239 28.3959 216.987 27.6259 219.063L33.6555 223.969L27.0225 222.432C27.0214 223.964 27.3886 225.474 28.093 226.835Z" fill="#57B894"/>
<path d="M28.093 225.495C29.1061 227.464 30.7653 229.024 32.7923 229.915C34.8193 230.805 37.0908 230.972 39.2259 230.386C41.3611 229.8 43.23 228.499 44.5192 226.699C45.8084 224.899 46.4395 222.71 46.3067 220.5C46.1739 218.29 45.2852 216.193 43.7897 214.561C42.2942 212.928 40.2829 211.86 38.093 211.534C35.9031 211.208 33.6678 211.646 31.762 212.772C29.8563 213.899 28.3959 215.647 27.6259 217.723L33.6555 222.629L27.0225 221.092C27.0214 222.624 27.3886 224.134 28.093 225.495V225.495Z" stroke="#3F3D56" stroke-miterlimit="10"/>
<path d="M61.4531 273.777H169.982" stroke="#3F3D56" stroke-miterlimit="10"/>
<path d="M88.6111 248.374C87.8941 248.774 87.1376 249.098 86.3539 249.341C84.9521 249.724 83.4539 249.584 82.0379 249.91C81.4582 250.044 80.8273 250.324 80.6429 250.89C80.5563 251.321 80.6098 251.768 80.7957 252.166C82.3602 256.753 83.3033 261.624 85.7984 265.779C86.847 267.524 88.1485 269.104 89.6605 270.467C90.1868 271.028 90.8755 271.41 91.6299 271.559C91.9798 271.596 92.3334 271.54 92.6548 271.397C92.9762 271.253 93.2541 271.028 93.4604 270.743C93.6668 270.458 93.7943 270.123 93.8301 269.773C93.8658 269.423 93.8086 269.07 93.6642 268.749C93.4405 268.252 93.0246 267.866 92.7564 267.392C92.4656 266.787 92.295 266.132 92.2542 265.462C92.0077 263.5 91.7702 261.45 92.45 259.593C92.906 258.348 93.7423 257.286 94.4391 256.157C95.1358 255.029 95.7147 253.736 95.5596 252.419C95.4023 251.525 95.0591 250.674 94.5522 249.92C94.0881 249.141 93.1709 247.048 92.2385 246.788C91.2706 246.518 89.4552 247.942 88.6111 248.374Z" fill="#F2F2F2"/>
<path d="M114.125 264.22C114.139 264.663 114.077 265.106 113.941 265.529C113.65 266.3 112.926 266.828 112.551 267.563C112.031 268.584 112.267 269.819 112.612 270.912C112.77 271.618 113.148 272.256 113.692 272.734C114.188 273.042 114.752 273.223 115.335 273.26C120.313 273.949 125.37 273.554 130.393 273.699C131.309 273.725 132.278 273.757 133.078 273.309C133.877 272.862 134.371 271.737 133.827 271C133.339 270.338 132.374 270.344 131.553 270.305C129.413 270.196 127.376 269.357 125.78 267.927C125.466 267.658 125.193 267.344 124.971 266.995C124.8 266.685 124.658 266.36 124.547 266.024C123.843 264.117 123.005 262.261 122.04 260.472C121.814 259.946 121.439 259.497 120.962 259.181C120.595 259.014 120.196 258.927 119.792 258.925C118.54 258.844 115.298 258.418 114.33 259.392C113.435 260.291 114.144 263.077 114.125 264.22Z" fill="#F2F2F2"/>
<path d="M121.828 153.043C126.245 153.043 129.826 149.462 129.826 145.046C129.826 140.629 126.245 137.048 121.828 137.048C117.412 137.048 113.831 140.629 113.831 145.046C113.831 149.462 117.412 153.043 121.828 153.043Z" fill="#FBBEBE"/>
<path d="M114.607 151.649C114.172 152.95 113.305 154.063 112.15 154.804L123.211 157.06C122.81 155.446 122.757 153.764 123.056 152.128C123.166 151.732 123.189 151.317 123.122 150.911C122.914 150.109 122.011 149.723 121.203 149.538C119.184 149.078 117.399 148.831 115.523 147.94C114.949 148.921 115.03 150.517 114.607 151.649Z" fill="#FBBEBE"/>
<path d="M112.058 151.81C113.248 151.271 114.544 151.009 115.85 151.043C117.156 151.077 118.436 151.407 119.597 152.007C120.98 152.821 122.241 153.827 123.342 154.995C124.406 156.021 125.54 157.195 125.616 158.671C125.59 159.386 125.49 160.097 125.316 160.792C125.114 162.253 125.371 163.742 126.053 165.051C126.734 166.36 127.806 167.425 129.12 168.097C129.998 169.561 130.18 171.334 130.193 173.042C130.244 179.51 128.204 186.058 129.66 192.361C130.003 193.841 130.533 195.274 130.829 196.763C131.211 198.693 131.192 200.677 131.393 202.634C131.61 204.753 132.084 206.838 132.804 208.843C132.323 209.609 131.321 209.902 130.419 209.84C129.519 209.726 128.651 209.432 127.868 208.975C123.97 206.98 120.399 204.349 116.362 202.654C113.691 201.533 110.845 200.834 108.254 199.539C105.663 198.243 103.253 196.187 102.46 193.401C102.171 192.18 102.042 190.928 102.078 189.674C101.999 184.398 101.926 179.065 103.074 173.916C104.087 169.374 106.039 165.03 106.465 160.397C106.604 158.888 106.607 157.274 107.449 156.015C108.64 154.237 111.212 153.776 112.058 151.81Z" fill="#3F3D56"/>
<path d="M117.28 145.158C117.751 144.544 118.66 144.46 119.413 144.642C120.166 144.824 120.86 145.212 121.62 145.359C121.793 145.408 121.974 145.421 122.152 145.396C122.33 145.371 122.501 145.309 122.653 145.214C122.919 144.952 123.078 144.601 123.099 144.229C123.366 142.644 123.428 141.032 123.284 139.431C123.245 139.207 123.26 138.976 123.328 138.759C123.516 138.305 124.091 138.197 124.56 138.052C125.334 137.79 125.998 137.278 126.449 136.597C126.899 135.915 127.11 135.103 127.047 134.289C127.036 133.898 126.872 133.528 126.59 133.256C126.234 133.03 125.813 132.93 125.393 132.972C123.244 132.955 121.094 132.956 118.944 132.974C118.147 132.915 117.348 133.06 116.623 133.397C116.145 133.74 115.695 134.119 115.276 134.532C114.082 135.495 112.467 135.691 111.014 136.185C110.305 136.387 109.661 136.771 109.146 137.299C108.894 137.567 108.721 137.9 108.648 138.26C108.575 138.621 108.605 138.995 108.734 139.34C108.89 139.618 109.064 139.886 109.255 140.141C110.112 141.511 109.541 143.288 109.669 144.899C109.829 146.911 112.806 150.174 114.825 150.65C118.084 151.419 116.201 146.479 117.28 145.158Z" fill="#3F3D56"/>
<path d="M112.766 233.357C113.036 234.816 113.17 236.297 113.165 237.781C113.066 239.85 112.32 241.842 112.183 243.909C112.08 245.452 112.318 247.011 112.104 248.543C111.966 249.524 111.646 250.469 111.448 251.439C111.135 253.021 111.144 254.649 111.475 256.226C111.805 257.804 112.451 259.299 113.373 260.621C113.509 260.847 113.701 261.034 113.932 261.162C114.153 261.244 114.389 261.275 114.624 261.254C116.951 261.206 119.273 260.995 121.571 260.622C121.739 260.615 121.899 260.545 122.017 260.426C122.069 260.346 122.102 260.256 122.114 260.162C122.54 257.972 121.568 255.776 121.321 253.558C121.057 251.19 121.626 248.817 122.19 246.502C122.445 245.36 122.765 244.233 123.147 243.127C123.419 242.382 123.748 241.658 123.985 240.901C124.319 239.713 124.523 238.491 124.592 237.257C124.757 235.312 124.843 233.361 124.853 231.406C124.909 229.554 124.755 227.701 124.394 225.884C123.875 223.582 122.814 221.445 121.762 219.334C121.199 219.469 120.671 219.72 120.211 220.071C118.855 220.949 117.44 221.731 115.974 222.411C114.99 222.869 113.07 223.194 112.445 224.146C111.829 225.086 112.227 227.003 112.274 228.04C112.355 229.819 112.519 231.591 112.766 233.357Z" fill="#3F3D56"/>
<path opacity="0.1" d="M112.766 233.357C113.036 234.816 113.17 236.297 113.165 237.781C113.066 239.85 112.32 241.842 112.183 243.909C112.08 245.452 112.318 247.011 112.104 248.543C111.966 249.524 111.646 250.469 111.448 251.439C111.135 253.021 111.144 254.649 111.475 256.226C111.805 257.804 112.451 259.299 113.373 260.621C113.509 260.847 113.701 261.034 113.932 261.162C114.153 261.244 114.389 261.275 114.624 261.254C116.951 261.206 119.273 260.995 121.571 260.622C121.739 260.615 121.899 260.545 122.017 260.426C122.069 260.346 122.102 260.256 122.114 260.162C122.54 257.972 121.568 255.776 121.321 253.558C121.057 251.19 121.626 248.817 122.19 246.502C122.445 245.36 122.765 244.233 123.147 243.127C123.419 242.382 123.748 241.658 123.985 240.901C124.319 239.713 124.523 238.491 124.592 237.257C124.757 235.312 124.843 233.361 124.853 231.406C124.909 229.554 124.755 227.701 124.394 225.884C123.875 223.582 122.814 221.445 121.762 219.334C121.199 219.469 120.671 219.72 120.211 220.071C118.855 220.949 117.44 221.731 115.974 222.411C114.99 222.869 113.07 223.194 112.445 224.146C111.829 225.086 112.227 227.003 112.274 228.04C112.355 229.819 112.519 231.591 112.766 233.357Z" fill="black"/>
<path d="M101.953 201.985C100.891 204.844 102.452 207.934 103.808 210.666C107.15 217.397 109.47 224.579 111.778 231.73C112.008 232.248 112.062 232.827 111.931 233.379C111.764 233.755 111.494 234.075 111.152 234.303C109.561 235.511 107.534 235.942 105.639 236.574C103.807 237.186 102.052 238.008 100.411 239.025C99.0369 239.876 97.7501 240.859 96.4658 241.84L92.3776 244.962C92.1129 245.141 91.8816 245.365 91.6943 245.624C91.3 246.242 91.4615 247.05 91.6578 247.757C92.1777 249.628 92.847 251.455 93.6594 253.219C93.7931 253.606 94.0476 253.94 94.3853 254.171C95.0234 254.513 95.8039 254.059 96.2912 253.523C96.7785 252.987 97.1999 252.32 97.8868 252.09C98.5729 251.86 99.328 252.138 100.045 252.037C101.203 251.875 101.973 250.807 102.808 249.988C106.221 246.639 111.919 246.882 115.674 243.922C116.216 243.436 116.791 242.987 117.393 242.578C118.028 242.203 118.748 241.997 119.406 241.666C121.409 240.657 122.668 238.572 123.343 236.433C124.017 234.295 124.21 232.037 124.694 229.848C124.994 228.728 125.225 227.59 125.386 226.442C125.458 225.369 125.435 224.292 125.316 223.222L123.962 206.465C123.851 205.1 123.741 203.734 123.527 202.382C119.504 202.526 115.483 202.688 111.458 202.735C108.254 202.773 104.992 202.997 101.953 201.985Z" fill="#3F3D56"/>
<path d="M100.474 205.905C101.02 206.783 102.349 206.765 103.263 206.284C104.178 205.802 104.889 204.994 105.806 204.517C107.038 203.876 108.496 203.9 109.884 203.939C112.082 204.001 114.307 204.067 116.422 204.67C118.609 205.293 120.738 206.492 123 206.253C123.198 206.253 123.394 206.209 123.573 206.125C123.753 206.04 123.911 205.918 124.038 205.765C124.164 205.524 124.223 205.254 124.209 204.983L124.283 203.007C124.328 202.665 124.274 202.318 124.126 202.006C123.936 201.747 123.676 201.548 123.376 201.432C120.157 199.874 116.486 199.584 112.911 199.461C111.094 199.399 109.277 199.373 107.458 199.385C105.915 199.394 104.062 199.171 102.562 199.583C100.549 200.136 99.4529 204.262 100.474 205.905Z" fill="#3F3D56"/>
<path d="M120.688 154.155C116.47 154.118 112.648 151.334 108.431 151.266C107.921 151.231 107.41 151.319 106.942 151.523C106.392 151.885 105.911 152.343 105.522 152.875C104.274 154.225 102.469 154.946 101.187 156.264C99.9861 157.5 99.318 159.342 99.7923 160.999C100.267 162.656 102.057 163.927 103.733 163.528C104.409 161.342 105.803 159.447 107.69 158.152C108.672 157.522 109.707 156.979 110.783 156.528C112.679 155.67 114.799 154.794 116.778 155.438C117.507 155.714 118.196 156.089 118.823 156.553L122.122 158.77C121.737 157.253 121.392 155.553 120.688 154.155Z" fill="#FFD339"/>
<path d="M103.248 162.062C102.688 162.761 103.494 163.773 103.371 164.66C103.289 165.25 102.804 165.7 102.602 166.259C102.393 166.839 102.504 167.481 102.424 168.092C102.345 168.537 102.227 168.974 102.072 169.398C101.717 170.665 101.469 171.96 101.331 173.269L100.593 178.782C100.465 179.612 100.387 180.449 100.359 181.288C100.396 181.915 100.355 182.544 100.234 183.161C100.017 183.746 99.7599 184.315 99.4655 184.866C99.3202 185.143 99.242 185.45 99.2373 185.763C99.2325 186.076 99.3013 186.385 99.438 186.666C98.8919 187.145 98.528 187.797 98.4079 188.513C98.2878 189.229 98.419 189.965 98.7791 190.595C98.9258 190.784 99.0405 190.995 99.1186 191.221C99.1612 191.536 99.1092 191.857 98.9691 192.142L98.2226 194.132C98.0315 194.641 97.9711 195.416 98.5023 195.532C98.0623 195.989 97.7195 196.531 97.4945 197.124C97.3854 197.422 97.3528 197.742 97.3997 198.056C97.4466 198.37 97.5715 198.666 97.763 198.919C97.9484 199.082 98.1064 199.274 98.2306 199.487C98.3036 199.784 98.2848 200.096 98.1766 200.382C98.065 200.816 98.0434 201.269 98.1134 201.712C98.1833 202.155 98.3432 202.579 98.5831 202.958C98.8318 203.332 99.184 203.625 99.5966 203.802C100.009 203.979 100.465 204.032 100.907 203.954C102.4 203.617 103.742 203.086 105.248 203.362C108.502 203.888 111.72 204.621 114.882 205.557C118.466 206.701 121.936 208.379 125.681 208.731C125.927 208.781 126.184 208.741 126.403 208.619C126.594 208.438 126.713 208.194 126.737 207.932L127.895 202.504C128.361 200.499 128.716 198.469 128.959 196.425C129.091 195.105 129.128 193.778 129.166 192.452L129.464 181.9C129.604 180.345 129.396 178.778 128.857 177.313L127.141 171.835C126.161 168.708 123.915 165.936 123.115 162.759C122.609 160.749 122.235 158.591 120.877 157.024C118.942 154.789 115.593 154.442 112.662 154.826C111.328 154.949 110.033 155.343 108.857 155.986C107.533 156.78 106.557 158.03 105.613 159.253C104.835 160.26 104.044 161.069 103.248 162.062Z" fill="#FFD339"/>
<path d="M110.091 193.099C110.333 194.14 110.84 195.1 111.15 196.123C111.67 197.837 111.626 199.682 112.145 201.396C112.363 202.116 112.679 202.807 112.835 203.542C113.2 205.256 112.667 207.029 112.006 208.652C111.345 210.275 110.54 211.875 110.325 213.615C110.174 214.84 110.391 216.223 111.335 217.018C112.315 217.843 113.74 217.787 115.017 217.678C115.475 217.665 115.928 217.571 116.353 217.399C117.329 216.938 117.741 215.782 117.969 214.726C118.734 211.188 118.515 207.521 118.293 203.908L117.712 194.459C117.673 192.626 117.407 190.804 116.919 189.036C116.715 188.401 116.36 187.117 115.78 186.711C115.205 186.31 113.563 186.292 112.852 186.258C109.512 186.101 109.55 190.762 110.091 193.099Z" fill="#FBBEBE"/>
<path d="M113.791 158.212C113.437 158.057 113.05 157.993 112.666 158.027C112.281 158.061 111.911 158.192 111.59 158.406C110.954 158.842 110.396 159.383 109.942 160.007C108.468 161.805 106.908 163.869 107.127 166.184C107.269 167.044 107.483 167.891 107.767 168.716C108.755 172.409 107.662 176.314 107.787 180.135C107.928 182.341 108.274 184.529 108.819 186.671C108.916 187.111 109.073 187.62 109.498 187.768C109.833 187.833 110.18 187.779 110.48 187.616C111.659 187.181 112.926 187.035 114.174 187.192C115.421 187.35 116.612 187.805 117.646 188.519C118.437 188.098 118.141 186.763 117.963 185.885C117.437 183.274 118.152 180.581 119.02 178.064C119.888 175.547 120.927 173.032 121.071 170.373C121.234 167.36 120.235 164.42 119.25 161.568C119.156 160.971 118.874 160.42 118.445 159.996C118.016 159.571 117.462 159.294 116.865 159.206C115.818 158.897 114.758 158.718 113.791 158.212Z" fill="#3F3D56"/>
</g>
<defs>
<clipPath id="clip0_344_3555">
<rect width="488" height="274" fill="white"/>
</clipPath>
</defs>
</svg>
