<svg width="486" height="267" viewBox="0 0 486 267" fill="none" xmlns="http://www.w3.org/2000/svg">
<g clip-path="url(#clip0_344_3249)">
<path d="M405.289 41.9746H208.077V82.532H405.289V41.9746Z" stroke="#3F3D56" stroke-miterlimit="10"/>
<path d="M90.3896 99.5852C96.0133 90.8018 106.661 84.876 118.87 84.876C136.943 84.876 151.593 97.86 151.593 113.877C151.593 124.117 145.604 133.118 136.561 138.278" stroke="#3F3D56" stroke-miterlimit="10"/>
<path d="M391.327 49.8245H194.115V90.3818H391.327V49.8245Z" fill="#FFD339"/>
<path d="M69.4478 11.1206C71.1346 11.1206 72.502 9.75386 72.502 8.06788C72.502 6.3819 71.1346 5.01514 69.4478 5.01514C67.761 5.01514 66.3936 6.3819 66.3936 8.06788C66.3936 9.75386 67.761 11.1206 69.4478 11.1206Z" fill="#FFD339"/>
<path d="M79.9194 11.1206C81.6062 11.1206 82.9736 9.75386 82.9736 8.06788C82.9736 6.3819 81.6062 5.01514 79.9194 5.01514C78.2327 5.01514 76.8652 6.3819 76.8652 8.06788C76.8652 9.75386 78.2327 11.1206 79.9194 11.1206Z" fill="#FFD339"/>
<path d="M90.3911 11.1206C92.0779 11.1206 93.4453 9.75386 93.4453 8.06788C93.4453 6.3819 92.0779 5.01514 90.3911 5.01514C88.7043 5.01514 87.3369 6.3819 87.3369 8.06788C87.3369 9.75386 88.7043 11.1206 90.3911 11.1206Z" fill="#FFD339"/>
<path d="M427.658 0.218018H61.1582V238.329H427.658V0.218018Z" stroke="#3F3D56" stroke-miterlimit="10"/>
<path d="M61.1582 13.4473H427.658" stroke="#3F3D56" stroke-miterlimit="10"/>
<path d="M70.3208 9.81227C72.0076 9.81227 73.375 8.44551 73.375 6.75953C73.375 5.07355 72.0076 3.70679 70.3208 3.70679C68.634 3.70679 67.2666 5.07355 67.2666 6.75953C67.2666 8.44551 68.634 9.81227 70.3208 9.81227Z" stroke="#3F3D56" stroke-miterlimit="10"/>
<path d="M80.7915 9.81227C82.4783 9.81227 83.8457 8.44551 83.8457 6.75953C83.8457 5.07355 82.4783 3.70679 80.7915 3.70679C79.1047 3.70679 77.7373 5.07355 77.7373 6.75953C77.7373 8.44551 79.1047 9.81227 80.7915 9.81227Z" stroke="#3F3D56" stroke-miterlimit="10"/>
<path d="M91.2632 9.81227C92.95 9.81227 94.3174 8.44551 94.3174 6.75953C94.3174 5.07355 92.95 3.70679 91.2632 3.70679C89.5764 3.70679 88.209 5.07355 88.209 6.75953C88.209 8.44551 89.5764 9.81227 91.2632 9.81227Z" stroke="#3F3D56" stroke-miterlimit="10"/>
<path d="M14.0564 89.2036C15.3925 88.6131 16.573 87.7205 17.505 86.5961C18.437 85.4717 19.095 84.1463 19.4272 82.7244C19.7593 81.3025 19.7564 79.8229 19.4189 78.4023C19.0813 76.9817 18.4182 75.6589 17.4819 74.5381C16.5456 73.4173 15.3616 72.5292 14.0233 71.9438C12.685 71.3584 11.229 71.0916 9.76997 71.1646C8.31095 71.2376 6.88884 71.6483 5.61571 72.3644C4.34259 73.0804 3.25326 74.0823 2.43358 75.2909L5.96634 78.6279L1.42776 77.218C0.535199 79.5423 0.602389 82.1257 1.61456 84.4006C1.96615 85.2002 2.42935 85.9461 2.99034 86.6158C4.30253 88.1911 6.09271 89.296 8.0896 89.763C10.0865 90.2299 12.1812 90.0336 14.0564 89.2036Z" fill="#57B894"/>
<path d="M61.2537 121.935C57.8092 119.52 57.8086 114.448 58.6642 110.33C59.5199 106.212 60.826 101.72 58.8837 97.9886C56.0923 92.6266 48.755 92.3041 42.7348 91.731C38.2677 91.3052 33.8669 90.3517 29.6244 88.8905C27.9235 88.3043 26.2202 87.6199 24.8274 86.4816C22.8215 84.8424 21.6449 82.4248 20.5461 80.0795C16.886 72.2664 13.4116 64.3699 10.123 56.3899" stroke="#3F3D56" stroke-miterlimit="10"/>
<path d="M13.4705 88.0337C14.8065 87.4432 15.9871 86.5506 16.9191 85.4262C17.8511 84.3018 18.5091 82.9764 18.8412 81.5545C19.1733 80.1326 19.1705 78.653 18.8329 77.2324C18.4954 75.8118 17.8323 74.4889 16.896 73.3682C15.9596 72.2474 14.7757 71.3593 13.4374 70.7738C12.0991 70.1884 10.6431 69.9217 9.18404 69.9947C7.72502 70.0677 6.3029 70.4784 5.02978 71.1944C3.75665 71.9105 2.66732 72.9123 1.84765 74.121L5.3804 77.458L0.841822 76.0481C-0.0507377 78.3724 0.0164506 80.9558 1.02862 83.2307C1.38021 84.0303 1.84341 84.7762 2.4044 85.4459C3.7166 87.0212 5.50677 88.1261 7.50366 88.5931C9.50055 89.06 11.5953 88.8637 13.4705 88.0337V88.0337Z" stroke="#3F3D56" stroke-miterlimit="10"/>
<path d="M1.97374 61.8867C1.33279 60.4419 1.06597 58.859 1.19788 57.284C1.32978 55.709 1.85616 54.1925 2.72852 52.8743L6.48533 55.6644L4.16674 51.1726C5.6294 49.8101 7.48744 48.9474 9.47261 48.7091C11.4578 48.4708 13.4673 48.8693 15.2112 49.847C16.955 50.8246 18.3429 52.3309 19.1744 54.1484C20.0059 55.9659 20.238 58.0004 19.8373 59.9583C19.4365 61.9163 18.4236 63.6962 16.9448 65.0412C15.466 66.3863 13.5978 67.2267 11.6099 67.4413C9.62202 67.6559 7.61735 67.2335 5.88532 66.2351C4.15328 65.2367 2.7835 63.714 1.97374 61.8867Z" fill="#57B894"/>
<path d="M1.19346 60.3267C0.552515 58.8818 0.285701 57.299 0.417605 55.724C0.549509 54.149 1.07589 52.6325 1.94824 51.3143L5.70505 54.1044L3.38647 49.6126C4.84913 48.25 6.70718 47.3873 8.69235 47.149C10.6775 46.9108 12.6871 47.3092 14.4309 48.2869C16.1748 49.2646 17.5626 50.7709 18.3941 52.5883C19.2256 54.4058 19.4578 56.4404 19.057 58.3983C18.6563 60.3562 17.6434 62.1362 16.1645 63.4812C14.6857 64.8262 12.8175 65.6667 10.8296 65.8813C8.84177 66.0959 6.8371 65.6735 5.10506 64.6751C3.37302 63.6767 2.00324 62.1539 1.19348 60.3267L1.19346 60.3267Z" stroke="#3F3D56" stroke-miterlimit="10"/>
<path d="M41.6052 92.9449C43.7229 92.0071 45.4212 90.3232 46.3765 88.2143C47.3319 86.1053 47.4774 83.7188 46.7854 81.5095C46.0934 79.3002 44.6123 77.4226 42.6243 76.2347C40.6363 75.0467 38.2805 74.6315 36.0059 75.0681L37.7878 78.5198L33.9876 75.6959C33.9794 75.6987 33.9715 75.702 33.9639 75.706C32.8315 76.2075 31.8089 76.927 30.9547 77.8235C30.1004 78.72 29.4312 79.7759 28.9852 80.9309C28.0845 83.2635 28.1477 85.8582 29.161 88.1442C30.1743 90.4302 32.0547 92.2203 34.3884 93.1206C36.7221 94.0209 39.3181 93.9577 41.6052 92.9449Z" fill="#57B894"/>
<path d="M40.7596 91.417C42.8772 90.4792 44.5755 88.7954 45.5308 86.6865C46.4862 84.5775 46.6317 82.1909 45.9397 79.9816C45.2477 77.7723 43.7666 75.8948 41.7786 74.7068C39.7906 73.5189 37.4348 73.1037 35.1603 73.5403L36.9421 76.992L33.1419 74.1681C33.1338 74.1708 33.1259 74.1742 33.1183 74.1782C31.9854 74.6794 30.9624 75.3988 30.1077 76.2952C29.253 77.1917 28.5834 78.2477 28.1371 79.4028C27.6908 80.558 27.4766 81.7898 27.5067 83.0277C27.5368 84.2657 27.8105 85.4856 28.3124 86.6177C28.8142 87.7499 29.5343 88.7722 30.4315 89.6261C31.3287 90.4801 32.3854 91.149 33.5413 91.5947C34.6972 92.0404 35.9296 92.2541 37.1681 92.2236C38.4066 92.1931 39.627 91.919 40.7596 91.417V91.417Z" stroke="#3F3D56" stroke-miterlimit="10"/>
<path d="M45.3706 111.037C47.116 112.313 49.2475 112.951 51.4077 112.844C53.5679 112.736 55.6254 111.889 57.2351 110.445C58.8448 109.002 59.9088 107.048 60.2488 104.913C60.5887 102.778 60.1839 100.592 59.1021 98.7195C58.0204 96.8475 56.3276 95.4041 54.3075 94.6316C52.2875 93.859 50.0631 93.8041 48.0074 94.4762C45.9517 95.1483 44.1897 96.5065 43.017 98.3229C41.8442 100.139 41.332 102.304 41.5662 104.453L48.9785 106.104L42.5111 107.659C43.1798 108.997 44.1605 110.156 45.3706 111.037Z" fill="#57B894"/>
<path d="M44.7847 109.867C46.5301 111.143 48.6616 111.781 50.8218 111.674C52.982 111.566 55.0394 110.719 56.6492 109.276C58.2589 107.832 59.3229 105.878 59.6629 103.743C60.0028 101.608 59.5979 99.4216 58.5162 97.5496C57.4345 95.6776 55.7416 94.2342 53.7216 93.4616C51.7015 92.6891 49.4772 92.6342 47.4215 93.3063C45.3658 93.9784 43.6038 95.3366 42.431 97.153C41.2583 98.9694 40.746 101.134 40.9803 103.283L48.3926 104.934L41.9252 106.489C42.5939 107.827 43.5746 108.986 44.7847 109.867V109.867Z" stroke="#3F3D56" stroke-miterlimit="10"/>
<path d="M454.442 199.904C455.683 200.565 457.061 200.928 458.467 200.966C459.872 201.004 461.268 200.714 462.543 200.121C463.818 199.528 464.937 198.646 465.813 197.547C466.689 196.447 467.298 195.159 467.591 193.784C467.884 192.41 467.854 190.986 467.502 189.625C467.151 188.264 466.488 187.003 465.566 185.941C464.643 184.88 463.487 184.047 462.188 183.509C460.889 182.97 459.483 182.741 458.08 182.838L457.65 187.496L456.022 183.222C453.73 183.927 451.812 185.513 450.69 187.631C450.292 188.372 450.002 189.166 449.828 189.988C449.414 191.918 449.64 193.93 450.473 195.719C451.305 197.508 452.699 198.978 454.442 199.904Z" fill="#57B894"/>
<path d="M457.677 255.085C457.461 251.042 461.304 248.028 464.933 246.229C468.562 244.431 472.743 242.75 474.416 239.063C476.822 233.764 472.707 228.017 469.564 223.119C467.233 219.484 465.341 215.585 463.928 211.505C463.361 209.869 462.868 208.173 462.903 206.442C462.954 203.949 464.087 201.622 465.211 199.397C468.958 191.983 472.878 184.661 476.972 177.431" stroke="#3F3D56" stroke-miterlimit="10"/>
<path d="M454.981 198.766C456.222 199.426 457.6 199.79 459.006 199.828C460.412 199.865 461.807 199.576 463.082 198.983C464.357 198.389 465.476 197.508 466.352 196.408C467.228 195.309 467.837 194.021 468.13 192.646C468.423 191.271 468.393 189.847 468.041 188.486C467.69 187.125 467.027 185.864 466.105 184.803C465.183 183.742 464.026 182.909 462.727 182.371C461.428 181.832 460.022 181.602 458.619 181.7L458.189 186.357L456.561 182.083C454.269 182.789 452.351 184.374 451.229 186.492C450.831 187.233 450.541 188.027 450.367 188.85C449.953 190.779 450.179 192.791 451.012 194.58C451.844 196.37 453.238 197.839 454.981 198.766V198.766Z" stroke="#3F3D56" stroke-miterlimit="10"/>
<path d="M467.965 174.527C468.679 173.183 469.72 172.041 470.992 171.205C472.264 170.369 473.726 169.867 475.244 169.744L475.361 174.246L477.388 169.822C479.289 170.12 481.047 171.014 482.407 172.375C483.767 173.737 484.659 175.495 484.954 177.396C485.249 179.297 484.932 181.243 484.049 182.952C483.166 184.662 481.762 186.046 480.04 186.906C478.318 187.766 476.367 188.057 474.469 187.736C472.571 187.415 470.824 186.5 469.481 185.123C468.137 183.745 467.266 181.977 466.994 180.072C466.721 178.167 467.061 176.226 467.965 174.527Z" fill="#57B894"/>
<path d="M468.684 173.009C469.398 171.665 470.439 170.523 471.711 169.687C472.983 168.851 474.445 168.349 475.962 168.226L476.08 172.728L478.107 168.304C480.008 168.602 481.766 169.496 483.126 170.857C484.486 172.219 485.378 173.977 485.673 175.878C485.968 177.779 485.651 179.725 484.768 181.434C483.884 183.144 482.481 184.528 480.759 185.388C479.037 186.248 477.086 186.539 475.188 186.218C473.29 185.897 471.543 184.982 470.199 183.605C468.856 182.227 467.985 180.458 467.712 178.554C467.44 176.649 467.78 174.708 468.684 173.009Z" stroke="#3F3D56" stroke-miterlimit="10"/>
<path d="M467.973 222.984C469.942 224.031 472.227 224.316 474.393 223.786C476.559 223.257 478.454 221.949 479.717 220.112C480.981 218.276 481.523 216.039 481.243 213.828C480.962 211.617 479.877 209.587 478.195 208.124L476.637 211.524L476.52 206.969C476.513 206.964 476.505 206.96 476.498 206.957C475.445 206.397 474.292 206.049 473.104 205.934C471.917 205.82 470.719 205.94 469.578 206.288C468.437 206.637 467.376 207.206 466.455 207.965C465.535 208.723 464.773 209.655 464.213 210.708C463.653 211.761 463.306 212.913 463.192 214.1C463.078 215.287 463.199 216.485 463.548 217.625C463.897 218.765 464.468 219.825 465.227 220.745C465.987 221.664 466.92 222.425 467.973 222.985V222.984Z" fill="#57B894"/>
<path d="M468.629 221.437C470.598 222.483 472.883 222.768 475.049 222.239C477.215 221.709 479.11 220.401 480.373 218.565C481.636 216.728 482.179 214.491 481.898 212.28C481.618 210.069 480.533 208.039 478.85 206.576L477.293 209.976L477.175 205.421C477.168 205.417 477.161 205.413 477.154 205.409C476.101 204.849 474.948 204.502 473.76 204.387C472.573 204.273 471.375 204.393 470.234 204.742C469.094 205.09 468.033 205.659 467.112 206.418C466.192 207.176 465.43 208.108 464.87 209.161C464.31 210.214 463.963 211.366 463.849 212.553C463.735 213.74 463.856 214.937 464.205 216.077C464.554 217.217 465.125 218.277 465.884 219.197C466.643 220.117 467.576 220.878 468.629 221.437V221.437Z" stroke="#3F3D56" stroke-miterlimit="10"/>
<path d="M456.5 236.584C456.569 238.664 457.352 240.657 458.717 242.229C460.082 243.8 461.946 244.855 463.997 245.216C466.047 245.577 468.16 245.222 469.98 244.211C471.8 243.2 473.217 241.594 473.993 239.663C474.769 237.731 474.857 235.592 474.242 233.604C473.627 231.615 472.347 229.899 470.617 228.742C468.886 227.584 466.81 227.057 464.736 227.249C462.663 227.44 460.719 228.338 459.229 229.792L462.381 236.385L457.361 232.412C456.744 233.714 456.448 235.145 456.5 236.584Z" fill="#57B894"/>
<path d="M457.039 235.446C457.108 237.526 457.891 239.519 459.256 241.09C460.621 242.662 462.485 243.716 464.536 244.077C466.587 244.438 468.699 244.083 470.519 243.072C472.339 242.061 473.756 240.455 474.532 238.524C475.308 236.593 475.396 234.454 474.781 232.465C474.166 230.477 472.886 228.76 471.156 227.603C469.425 226.446 467.349 225.919 465.276 226.11C463.202 226.301 461.258 227.199 459.768 228.654L462.921 235.247L457.9 231.274C457.283 232.575 456.987 234.006 457.039 235.446Z" stroke="#3F3D56" stroke-miterlimit="10"/>
<path d="M50.2703 51.699C51.6063 51.1085 52.7869 50.2158 53.7189 49.0915C54.6509 47.9671 55.3089 46.6417 55.641 45.2198C55.9732 43.7979 55.9703 42.3183 55.6327 40.8977C55.2952 39.4771 54.6321 38.1542 53.6958 37.0334C52.7594 35.9126 51.5755 35.0245 50.2372 34.4391C48.8989 33.8537 47.4429 33.587 45.9838 33.66C44.5248 33.733 43.1027 34.1437 41.8296 34.8597C40.5565 35.5758 39.4671 36.5776 38.6474 37.7862L42.1802 41.1233L37.6416 39.7134C36.7491 42.0377 36.8163 44.6211 37.8284 46.8959C38.18 47.6956 38.6432 48.4414 39.2042 49.1112C40.5164 50.6865 42.3066 51.7913 44.3035 52.2583C46.3004 52.7253 48.3951 52.5289 50.2703 51.699Z" fill="#57B894"/>
<path d="M61.0412 48.977C59.0354 47.3377 57.8587 44.9202 56.76 42.5748C53.0998 34.7617 49.6255 26.8652 46.3369 18.8853" stroke="#3F3D56" stroke-miterlimit="10"/>
<path d="M49.6844 50.5291C51.0204 49.9385 52.201 49.0459 53.133 47.9215C54.065 46.7972 54.723 45.4718 55.0551 44.0499C55.3872 42.628 55.3844 41.1484 55.0468 39.7278C54.7092 38.3071 54.0461 36.9843 53.1098 35.8635C52.1735 34.7427 50.9895 33.8546 49.6512 33.2692C48.313 32.6838 46.8569 32.4171 45.3979 32.4901C43.9389 32.563 42.5168 32.9738 41.2436 33.6898C39.9705 34.4059 38.8812 35.4077 38.0615 36.6163L41.5943 39.9533L37.0557 38.5435C36.1631 40.8678 36.2303 43.4512 37.2425 45.726C37.5941 46.5257 38.0573 47.2715 38.6183 47.9413C39.9305 49.5166 41.7206 50.6214 43.7175 51.0884C45.7144 51.5554 47.8092 51.359 49.6844 50.5291V50.5291Z" stroke="#3F3D56" stroke-miterlimit="10"/>
<path d="M38.1876 24.3821C37.5467 22.9372 37.2798 21.3544 37.4117 19.7794C37.5436 18.2044 38.07 16.6879 38.9424 15.3696L42.6992 18.1598L40.3806 13.668C41.8433 12.3055 43.7013 11.4428 45.6865 11.2045C47.6717 10.9662 49.6812 11.3646 51.4251 12.3423C53.1689 13.32 54.5567 14.8263 55.3883 16.6438C56.2198 18.4612 56.4519 20.4958 56.0512 22.4537C55.6504 24.4116 54.6375 26.1916 53.1587 27.5366C51.6798 28.8816 49.8116 29.7221 47.8238 29.9367C45.8359 30.1513 43.8312 29.7289 42.0992 28.7305C40.3672 27.7321 38.9974 26.2093 38.1876 24.3821V24.3821Z" fill="#57B894"/>
<path d="M37.4073 22.822C36.7664 21.3772 36.4996 19.7943 36.6315 18.2193C36.7634 16.6443 37.2898 15.1278 38.1621 13.8096L41.9189 16.5998L39.6003 12.108C41.063 10.7454 42.9211 9.88269 44.9062 9.64441C46.8914 9.40612 48.901 9.80459 50.6448 10.7823C52.3886 11.7599 53.7765 13.2663 54.608 15.0837C55.4395 16.9012 55.6717 18.9357 55.2709 20.8936C54.8702 22.8516 53.8572 24.6315 52.3784 25.9765C50.8996 27.3216 49.0314 28.162 47.0435 28.3766C45.0556 28.5912 43.051 28.1688 41.3189 27.1704C39.5869 26.172 38.2171 24.6493 37.4074 22.822L37.4073 22.822Z" stroke="#3F3D56" stroke-miterlimit="10"/>
<path d="M176.225 13.4473V238.667" stroke="#3F3D56" stroke-miterlimit="10"/>
<path d="M281.595 124.18H217.457V132.902H281.595V124.18Z" fill="#F2F2F2"/>
<path d="M382.383 124.18H318.245V132.902H382.383V124.18Z" fill="#F2F2F2"/>
<path d="M285.086 119.819H220.948V128.541H285.086V119.819Z" stroke="#3F3D56" stroke-miterlimit="10"/>
<path d="M281.595 191.775H217.457V200.497H281.595V191.775Z" fill="#F2F2F2"/>
<path d="M285.086 187.414H220.948V196.136H285.086V187.414Z" stroke="#3F3D56" stroke-miterlimit="10"/>
<path d="M382.601 157.105H217.676V165.827H382.601V157.105Z" fill="#F2F2F2"/>
<path d="M386.091 153.616H221.166V162.338H386.091V153.616Z" stroke="#3F3D56" stroke-miterlimit="10"/>
<path d="M385.873 119.819H321.735V128.541H385.873V119.819Z" stroke="#3F3D56" stroke-miterlimit="10"/>
<path d="M406.233 94.2791C406.37 94.7496 406.546 95.208 406.758 95.6498C409.115 101.187 409.217 107.424 407.043 113.036C408.608 112.938 410.171 113.191 411.735 113.312C413.299 113.433 414.918 113.413 416.372 112.801C417.826 112.189 419.092 110.878 419.304 109.261C419.59 107.078 418 105.173 416.604 103.516C415.182 101.827 413.808 99.9647 413.387 97.7622C412.924 95.3412 413.583 92.5026 412.053 90.6165C411.918 90.435 411.744 90.2867 411.544 90.1828C410.722 89.8063 408.582 89.8184 407.755 90.2846C406.482 91.0022 405.92 92.8949 406.233 94.2791Z" fill="#3F3D56"/>
<path d="M449.561 252.209C449.462 252.938 449.289 253.655 449.047 254.349C449.047 254.349 447.462 257.996 440.941 257.012C436.682 256.369 436.711 254.374 437.417 252.829C437.738 252.186 438.128 251.58 438.58 251.02C439.213 250.164 439.151 246.898 439.373 243.919C439.594 240.938 440.941 240.786 440.941 240.786L441.021 244.14C443.56 240.811 445.336 244.711 445.336 244.711C445.336 244.711 448.946 244.786 448.505 242.936C448.034 240.965 447.332 237.845 447.332 237.845C447.332 237.845 449.079 238.656 449.395 239.226C449.713 239.797 449.332 247.438 449.047 248.167C448.762 248.896 449.047 250.862 449.46 251.433C449.576 251.674 449.612 251.946 449.561 252.209Z" fill="#3F3D56"/>
<path d="M448.357 242.74C448.356 243.495 448.115 244.23 447.668 244.839C447.221 245.448 446.592 245.899 445.871 246.126C445.172 246.347 444.431 246.404 443.706 246.294C442.981 246.183 442.292 245.908 441.69 245.489C441.326 245.235 441.037 244.887 440.855 244.482C440.673 244.077 440.604 243.63 440.657 243.189L440.757 242.346L441.123 239.274L441.625 235.042C441.625 235.042 447.028 232.291 446.669 233.33C446.533 233.718 446.832 235.464 447.26 237.499C447.565 238.954 447.934 240.556 448.26 241.914C448.325 242.185 448.357 242.462 448.357 242.74Z" fill="#FBBEBE"/>
<path opacity="0.1" d="M440.324 242.508C440.324 242.508 445.003 237.015 448.833 243.007L448.191 246.846H440.324V242.508Z" fill="black"/>
<path d="M440.324 242.888C440.324 242.888 445.003 237.396 448.833 243.388L448.191 247.226H440.324V242.888Z" fill="#3F3D56"/>
<path d="M446.406 246.275C446.669 246.275 446.882 246.062 446.882 245.8C446.882 245.537 446.669 245.324 446.406 245.324C446.144 245.324 445.931 245.537 445.931 245.8C445.931 246.062 446.144 246.275 446.406 246.275Z" fill="#F2F2F2"/>
<path d="M440.324 245.513C440.587 245.513 440.8 245.3 440.8 245.038C440.8 244.775 440.587 244.562 440.324 244.562C440.062 244.562 439.849 244.775 439.849 245.038C439.849 245.3 440.062 245.513 440.324 245.513Z" fill="#F2F2F2"/>
<path d="M444.765 249.498C445.028 249.498 445.241 249.286 445.241 249.023C445.241 248.76 445.028 248.547 444.765 248.547C444.502 248.547 444.289 248.76 444.289 249.023C444.289 249.286 444.502 249.498 444.765 249.498Z" fill="#F2F2F2"/>
<path d="M440.613 248.94C440.875 248.94 441.088 248.727 441.088 248.464C441.088 248.201 440.875 247.989 440.613 247.989C440.35 247.989 440.137 248.201 440.137 248.464C440.137 248.727 440.35 248.94 440.613 248.94Z" fill="#F2F2F2"/>
<path d="M445.685 247.988C445.948 247.988 446.161 247.776 446.161 247.513C446.161 247.25 445.948 247.037 445.685 247.037C445.422 247.037 445.209 247.25 445.209 247.513C445.209 247.776 445.422 247.988 445.685 247.988Z" fill="#F2F2F2"/>
<path d="M440.324 247.226C440.587 247.226 440.8 247.013 440.8 246.751C440.8 246.488 440.587 246.275 440.324 246.275C440.062 246.275 439.849 246.488 439.849 246.751C439.849 247.013 440.062 247.226 440.324 247.226Z" fill="#F2F2F2"/>
<path d="M444.289 251.267C444.552 251.267 444.765 251.054 444.765 250.792C444.765 250.529 444.552 250.316 444.289 250.316C444.027 250.316 443.813 250.529 443.813 250.792C443.813 251.054 444.027 251.267 444.289 251.267Z" fill="#F2F2F2"/>
<path d="M440.613 250.653C440.875 250.653 441.088 250.44 441.088 250.177C441.088 249.915 440.875 249.702 440.613 249.702C440.35 249.702 440.137 249.915 440.137 250.177C440.137 250.44 440.35 250.653 440.613 250.653Z" fill="#F2F2F2"/>
<path d="M408.986 257.963L402.515 260.151C402.515 260.151 399.089 256.727 400.041 255.681C400.446 255.234 400.8 253.75 401.071 252.194C401.158 251.703 401.236 251.203 401.305 250.727C401.529 249.181 401.659 247.882 401.659 247.882C401.659 247.882 409.176 244.267 407.939 247.882C407.631 248.906 407.511 249.976 407.583 251.043C407.636 252.107 407.771 253.165 407.985 254.208C408.237 255.48 408.572 256.735 408.986 257.963Z" fill="#FBBEBE"/>
<path opacity="0.1" d="M408.986 257.963L402.515 260.151C402.515 260.151 399.089 256.727 400.041 255.681C400.446 255.234 400.8 253.75 401.071 252.194C401.438 252.85 401.693 253.562 401.826 254.302C407.416 257.37 407.511 255.538 407.511 255.538C407.574 255.067 407.735 254.614 407.985 254.208C408.237 255.48 408.572 256.735 408.986 257.963Z" fill="black"/>
<path d="M410.414 262.957C410.414 262.957 409.295 263.788 406.014 263.908C405.155 263.94 404.299 264.036 403.454 264.196C399.995 264.868 396.448 264.964 392.958 264.479C392.058 264.358 391.167 264.183 390.288 263.955C386.91 263.027 389.479 260.889 389.479 260.889C389.479 260.889 389.641 260.748 389.921 260.537C390.636 260.001 392.121 259.011 393.643 258.772C395.76 258.439 397.71 254.682 397.71 254.682L399.043 252.279C401.111 250.497 401.827 254.682 401.827 254.682C407.416 257.75 407.512 255.918 407.512 255.918C407.822 254.277 408.393 254.277 408.393 254.277C408.393 254.277 409.786 258.026 410.29 258.962C410.323 259.03 410.365 259.094 410.414 259.152C410.747 259.485 410.414 262.957 410.414 262.957Z" fill="#3F3D56"/>
<path d="M401.802 256.727C402.065 256.727 402.278 256.514 402.278 256.251C402.278 255.989 402.065 255.776 401.802 255.776C401.539 255.776 401.326 255.989 401.326 256.251C401.326 256.514 401.539 256.727 401.802 256.727Z" fill="#F2F2F2"/>
<path d="M399.076 258.059C399.339 258.059 399.552 257.846 399.552 257.583C399.552 257.32 399.339 257.107 399.076 257.107C398.814 257.107 398.601 257.32 398.601 257.583C398.601 257.846 398.814 258.059 399.076 258.059Z" fill="#F2F2F2"/>
<path d="M400.541 257.376C400.804 257.376 401.017 257.164 401.017 256.901C401.017 256.638 400.804 256.425 400.541 256.425C400.278 256.425 400.065 256.638 400.065 256.901C400.065 257.164 400.278 257.376 400.541 257.376Z" fill="#F2F2F2"/>
<path d="M397.543 258.843C397.806 258.843 398.019 258.63 398.019 258.368C398.019 258.105 397.806 257.892 397.543 257.892C397.28 257.892 397.067 258.105 397.067 258.368C397.067 258.63 397.28 258.843 397.543 258.843Z" fill="#F2F2F2"/>
<path opacity="0.1" d="M407.939 247.882C407.631 248.906 407.511 249.976 407.583 251.043C405.895 250.476 403.13 250.575 401.305 250.727C401.529 249.181 401.659 247.882 401.659 247.882C401.659 247.882 409.176 244.267 407.939 247.882Z" fill="black"/>
<path opacity="0.1" d="M447.261 237.499C444.922 239.791 442.686 239.934 441.123 239.274L441.625 235.042C441.625 235.042 447.028 232.291 446.669 233.33C446.534 233.718 446.833 235.464 447.261 237.499Z" fill="black"/>
<path d="M406.227 159.428C406.227 159.428 402.515 161.52 401.849 165.61C401.183 169.7 400.041 174.931 399.185 175.882C398.328 176.833 395.664 179.877 396.711 181.494C397.757 183.111 397.948 188.627 397.948 188.627C397.948 188.627 397.567 193.573 398.614 195.19C399.661 196.807 400.517 207.079 398.233 210.122C398.233 210.122 397.472 217.161 397.757 217.826C398.043 218.492 396.52 220.204 396.996 221.631C397.472 223.057 399.756 249.308 399.47 250.354C399.47 250.354 406.702 249.308 408.605 251.02C408.605 251.02 408.986 248.167 408.605 246.17C408.225 244.172 408.891 236.278 409.747 234.281C410.604 232.283 410.794 224.674 410.508 223.913C410.508 223.913 412.031 217.161 411.46 215.829C410.889 214.497 413.934 202.228 413.934 202.228C413.934 202.228 415.457 199.28 415.076 198.899C415.076 198.899 417.55 197.282 417.265 196.046C416.979 194.809 419.548 193.383 419.548 193.383C419.548 193.383 421.832 198.994 422.593 199.85C423.355 200.706 423.385 206.223 424.321 207.364C425.258 208.505 426.495 214.497 427.732 216.114C428.969 217.731 433.917 222.011 434.678 226.862C434.678 226.862 439.151 233.805 438.96 235.993C438.77 238.18 444.004 242.175 449.047 234.756C448.203 234.13 447.52 233.312 447.057 232.368C446.594 231.425 446.362 230.385 446.383 229.335C446.383 225.625 442.386 213.737 442.386 213.737C442.386 213.737 440.102 210.408 440.959 208.791C441.815 207.174 441.054 202.418 441.054 202.418L442.862 199.47C442.862 199.47 443.147 196.617 443.433 193.668C443.718 190.72 441.72 187.486 442.672 186.059C443.623 184.632 442.291 177.504 442.291 177.504C442.291 177.504 441.107 165.217 439.341 164.469C437.575 163.72 406.227 159.428 406.227 159.428Z" fill="#3F3D56"/>
<path d="M414.897 142.213C414.897 142.213 412.942 142.435 410.569 142.66C407.136 142.983 402.825 143.31 402.311 142.974C401.444 142.403 402.311 135.175 402.311 135.175C402.311 135.175 402.61 127.28 402.325 121.764C402.093 117.288 405.058 114.001 406.182 112.92C406.445 112.669 406.607 112.538 406.607 112.538L407.558 113.299L412.982 122.525L414.897 142.213Z" fill="#FBBEBE"/>
<path d="M436.106 111.872L430.777 115.106L422.022 121.764C422.022 121.764 412.983 117.008 415.266 114.25C415.692 113.705 415.978 113.065 416.102 112.384C416.789 109.207 415.266 104.644 415.266 104.644C415.266 104.644 427.176 88.5683 426.495 101.03C426.221 106.036 427.719 108.77 429.608 110.25C432.423 112.453 436.106 111.872 436.106 111.872Z" fill="#FBBEBE"/>
<path opacity="0.1" d="M436.106 111.872L430.777 115.106L422.022 121.764C422.022 121.764 412.983 117.008 415.266 114.25C415.692 113.705 415.978 113.065 416.102 112.384C416.789 109.207 415.266 104.644 415.266 104.644C415.266 104.644 427.176 88.5683 426.495 101.03C426.221 106.036 427.719 108.77 429.608 110.25C432.423 112.453 436.106 111.872 436.106 111.872Z" fill="black"/>
<path opacity="0.1" d="M419.757 109.247C425.843 109.247 430.777 104.022 430.777 97.5768C430.777 91.1318 425.843 85.907 419.757 85.907C413.67 85.907 408.736 91.1318 408.736 97.5768C408.736 104.022 413.67 109.247 419.757 109.247Z" fill="black"/>
<path d="M419.757 108.866C425.843 108.866 430.777 103.642 430.777 97.1965C430.777 90.7514 425.843 85.5266 419.757 85.5266C413.67 85.5266 408.736 90.7514 408.736 97.1965C408.736 103.642 413.67 108.866 419.757 108.866Z" fill="#FBBEBE"/>
<path opacity="0.1" d="M436.106 111.872L430.777 115.106L422.022 121.764C422.022 121.764 412.983 117.008 415.266 114.25C415.692 113.705 415.978 113.064 416.102 112.384C426.074 120.906 429.104 112.085 429.608 110.25C432.423 112.453 436.106 111.872 436.106 111.872Z" fill="black"/>
<path opacity="0.1" d="M414.897 142.213C414.897 142.213 412.943 142.435 410.569 142.66C410.476 140.613 410.166 138.298 410.223 136.887C410.318 134.509 410.318 134.223 409.557 132.892C408.796 131.56 408.891 130.514 408.986 128.802C409.077 127.162 408.643 126.831 407.1 124.212C407.033 124.098 406.965 123.98 406.892 123.856C406.135 122.551 405.918 120.191 405.91 117.961C405.912 117.953 405.912 117.945 405.91 117.937C405.908 117.406 405.918 116.883 405.937 116.384C405.939 116.363 405.939 116.343 405.939 116.322C405.994 114.815 406.118 113.531 406.183 112.92C406.445 112.669 406.607 112.538 406.607 112.538L407.558 113.299L412.982 122.525L414.897 142.213Z" fill="black"/>
<path d="M443.03 113.277C443.022 113.273 444.179 114.147 444.171 114.146C440.727 112.66 438.772 120.143 438.249 122.498C438.152 122.932 438.104 123.191 438.104 123.191C438.104 123.191 438.165 123.822 438.241 124.827C438.498 128.19 438.94 135.721 437.914 137.552C437.809 137.746 437.726 137.951 437.668 138.163C437.345 139.276 437.383 140.948 437.55 142.572C437.735 144.243 438.016 145.901 438.39 147.539C438.39 147.539 440.673 153.341 439.722 157.145C439.408 158.561 439.314 160.016 439.444 161.46C439.542 162.785 439.744 164.101 440.047 165.395C440.137 165.774 440.198 165.991 440.198 165.991C438.763 166.482 437.36 166.889 435.99 167.212C433.321 167.852 430.595 168.221 427.852 168.313C414.985 168.722 406.417 162.559 404.394 160.88C404.234 160.746 404.114 160.642 404.038 160.569C402.706 159.333 405.275 158.382 404.99 157.526C404.704 156.67 406.291 154.768 406.291 154.768C406.291 154.768 405.941 151.629 407.369 150.963C408.796 150.297 409.843 148.015 410.648 146.113C411.451 144.21 410.509 139.265 410.604 136.887C410.699 134.509 410.699 134.224 409.938 132.892C409.177 131.56 409.272 130.514 409.367 128.802C409.458 127.163 409.024 126.832 407.481 124.212C407.414 124.098 407.346 123.98 407.273 123.856C406.516 122.552 407.696 120.304 407.689 118.074C407.691 118.067 408.127 118.082 408.125 118.074C408.123 117.544 407.233 116.828 407.252 116.33C407.254 116.309 406.816 115.915 406.816 115.894C406.88 114.771 406.81 113.644 406.607 112.538C414.22 108.639 416.028 112.702 416.028 112.702C427.161 122.28 429.689 110.311 429.689 110.311C435.748 108.241 443.719 113.817 444.173 114.14C444.187 114.149 443.03 113.277 443.03 113.277Z" fill="#55536E"/>
<path d="M402.183 141.243C402.183 141.243 401.23 146.322 403.985 149.156C404.441 149.623 405.033 149.934 405.677 150.045C406.32 150.155 406.982 150.06 407.568 149.772C408.483 149.322 409.506 148.655 409.89 147.799C410.647 146.112 408.273 137.867 402.183 141.243Z" fill="#FBBEBE"/>
<path opacity="0.1" d="M437.913 137.552C437.808 137.746 437.726 137.951 437.668 138.163L438.104 127.043L438.241 124.826C438.498 128.19 438.939 135.72 437.913 137.552Z" fill="black"/>
<path opacity="0.1" d="M439.722 157.145C439.408 158.561 439.315 160.016 439.444 161.46C438.828 162.576 438.3 163.523 437.958 164.14C437.689 164.619 437.533 164.897 437.533 164.897C436.96 165.627 436.444 166.401 435.99 167.212C435.636 167.783 435.416 168.426 435.345 169.093C435.345 170.556 433.87 180.305 426.876 177.88C422.36 176.314 425.243 171.517 427.852 168.313C428.721 167.249 429.65 166.235 430.634 165.277C430.634 165.277 431.441 164.25 432.216 163.175C432.744 162.497 433.203 161.767 433.584 160.997C433.917 160.046 436.114 155.861 436.114 155.861C436.114 155.861 438.295 151.248 437.819 149.108C437.552 147.91 437.524 144.948 437.551 142.572C437.736 144.242 438.016 145.901 438.39 147.539C438.39 147.539 440.674 153.341 439.722 157.145Z" fill="black"/>
<path d="M444.194 114.155C444.194 114.155 447.62 116.533 447.525 122.715C447.429 128.897 446.288 139.597 446.288 139.597L445.574 146.255C445.574 146.255 444.67 148.966 444.813 149.774C444.955 150.583 437.343 164.136 437.343 164.136C437.343 164.136 435.154 166.871 435.154 168.333C435.154 169.795 433.679 179.544 426.685 177.119C419.691 174.693 430.444 164.516 430.444 164.516C430.444 164.516 433.061 161.188 433.394 160.236C433.727 159.285 435.924 155.1 435.924 155.1C435.924 155.1 438.104 150.488 437.628 148.348C437.153 146.208 437.438 138.438 437.438 138.438L437.914 126.282L438.104 123.191C438.104 123.191 439.865 112.919 444.194 114.155Z" fill="#FBBEBE"/>
<path d="M407.857 136.848L413.049 134.963C413.478 134.807 413.941 134.774 414.387 134.866C414.833 134.959 415.245 135.173 415.576 135.486L422.467 141.991C422.467 141.991 422.848 143.035 422.34 142.989C421.833 142.942 414.411 135.523 414.411 135.523L407.052 137.996C407.052 137.745 407.129 137.501 407.273 137.295C407.417 137.09 407.621 136.934 407.857 136.848Z" fill="#FFD339"/>
<path d="M415.202 145.573L422.339 142.989L414.41 135.523L407.051 137.996L415.202 145.573Z" fill="#4B4B5B"/>
<path d="M404.482 166.942C404.832 166.942 405.116 166.658 405.116 166.308C405.116 165.958 404.832 165.674 404.482 165.674C404.132 165.674 403.848 165.958 403.848 166.308C403.848 166.658 404.132 166.942 404.482 166.942Z" fill="#F2F2F2"/>
<path d="M400.169 175.089C400.519 175.089 400.803 174.805 400.803 174.455C400.803 174.105 400.519 173.821 400.169 173.821C399.818 173.821 399.534 174.105 399.534 174.455C399.534 174.805 399.818 175.089 400.169 175.089Z" fill="#F2F2F2"/>
<path d="M434.629 178.051C434.979 178.051 435.263 177.767 435.263 177.417C435.263 177.067 434.979 176.783 434.629 176.783C434.278 176.783 433.994 177.067 433.994 177.417C433.994 177.767 434.278 178.051 434.629 178.051Z" fill="#F2F2F2"/>
<path d="M438.216 189.561C438.567 189.561 438.851 189.277 438.851 188.927C438.851 188.577 438.567 188.293 438.216 188.293C437.866 188.293 437.582 188.577 437.582 188.927C437.582 189.277 437.866 189.561 438.216 189.561Z" fill="#F2F2F2"/>
<path d="M436.819 186.322C437.169 186.322 437.453 186.038 437.453 185.688C437.453 185.338 437.169 185.054 436.819 185.054C436.469 185.054 436.185 185.338 436.185 185.688C436.185 186.038 436.469 186.322 436.819 186.322Z" fill="#F2F2F2"/>
<path d="M435.606 182.186C435.956 182.186 436.24 181.902 436.24 181.552C436.24 181.202 435.956 180.918 435.606 180.918C435.256 180.918 434.972 181.202 434.972 181.552C434.972 181.902 435.256 182.186 435.606 182.186Z" fill="#F2F2F2"/>
<path d="M402.182 170.799C402.533 170.799 402.817 170.515 402.817 170.165C402.817 169.815 402.533 169.531 402.182 169.531C401.832 169.531 401.548 169.815 401.548 170.165C401.548 170.515 401.832 170.799 402.182 170.799Z" fill="#F2F2F2"/>
<path d="M397.652 179.319C398.002 179.319 398.286 179.035 398.286 178.685C398.286 178.335 398.002 178.051 397.652 178.051C397.302 178.051 397.018 178.335 397.018 178.685C397.018 179.035 397.302 179.319 397.652 179.319Z" fill="#F2F2F2"/>
<path d="M444.173 114.14L444.171 114.146C440.726 112.66 438.772 120.143 438.248 122.498L432.838 114.758C432.838 114.758 430.619 118.308 423.45 118.848C416.281 119.386 414.537 113.394 414.537 113.394C413.553 113.318 409.098 121.334 407.48 124.212C407.414 124.098 407.345 123.98 407.273 123.856C406.516 122.552 406.299 120.191 406.291 117.961C406.293 117.953 406.293 117.945 406.291 117.937C406.297 117.419 406.306 116.9 406.318 116.385C406.32 116.364 406.32 116.343 406.32 116.322C406.398 114.21 406.607 112.538 406.607 112.538C414.219 108.639 416.027 112.702 416.027 112.702C427.161 122.28 429.688 110.311 429.688 110.311C435.748 108.241 443.718 113.817 444.173 114.14Z" fill="#FFD339"/>
<path opacity="0.1" d="M401.944 183.681C402.039 183.919 410.033 193.145 412.983 193.621C415.932 194.096 401.944 183.681 401.944 183.681Z" fill="black"/>
<path opacity="0.1" d="M407.668 169.531C407.668 169.531 407.749 176.035 405.751 177.504C403.752 178.973 407.668 169.531 407.668 169.531Z" fill="black"/>
<path opacity="0.1" d="M411.365 171.84C411.365 171.84 411.175 179.497 414.029 181.304C414.029 181.304 408.796 176.215 411.365 171.84Z" fill="black"/>
<path opacity="0.1" d="M407.844 211.169C407.844 211.169 402.515 215.116 401.04 215.401C399.565 215.686 407.844 211.169 407.844 211.169Z" fill="black"/>
<path opacity="0.1" d="M406.514 90.3911C405.366 91.358 405.779 93.3652 406.952 94.3018C408.125 95.2384 409.729 95.3822 411.23 95.4209C414.119 95.4954 417.054 95.3279 419.855 96.0381C421.091 96.2941 422.234 96.8795 423.164 97.7323C424.025 98.7027 424.618 99.8814 424.884 101.151C425.374 103.02 425.573 104.954 425.472 106.883C425.404 108.18 425.2 109.485 425.387 110.77C425.618 111.976 426.027 113.142 426.6 114.228C428.804 118.9 431.257 123.45 433.951 127.858C434.164 128.291 434.496 128.655 434.909 128.906C435.596 129.237 436.404 128.901 437.09 128.568C436.69 127.225 436.464 125.837 436.417 124.437C436.773 124.531 437.15 124.517 437.498 124.395C437.846 124.274 438.149 124.051 438.37 123.756C438.799 123.157 439.102 122.477 439.259 121.757L440.539 117.347C440.935 115.984 441.522 114.419 442.885 114.017C443.374 113.948 443.855 113.836 444.324 113.682C444.633 113.499 444.881 113.23 445.039 112.908C445.197 112.586 445.258 112.224 445.213 111.868C445.11 111.156 444.812 110.486 444.354 109.932C442.427 107.341 439.215 105.805 437.711 102.949C436.42 100.496 436.644 97.5437 437.07 94.8048C437.496 92.0658 438.089 89.25 437.434 86.5567C436.77 84.0994 435.269 81.9506 433.19 80.4811C431.116 79.0289 428.746 78.0548 426.25 77.6289C425.098 77.3359 423.89 77.3441 422.742 77.6526C421.877 77.9449 421.136 78.5219 420.291 78.8694C418.373 79.6589 416.161 79.1873 414.148 79.6899C412.297 80.2209 410.69 81.3815 409.604 82.9712C408.533 84.5533 407.729 86.3007 407.225 88.1437C406.854 89.353 407.449 89.8368 406.368 90.4944" fill="black"/>
<path d="M406.704 90.0107C405.556 90.9776 405.97 92.9848 407.143 93.9214C408.316 94.8581 409.919 95.0019 411.42 95.0405C414.309 95.115 417.245 94.9475 420.046 95.6578C421.281 95.9137 422.425 96.4991 423.354 97.3519C424.216 98.3223 424.809 99.501 425.074 100.771C425.565 102.64 425.763 104.573 425.662 106.503C425.594 107.8 425.391 109.104 425.577 110.39C425.808 111.596 426.217 112.761 426.791 113.848C428.994 118.52 431.448 123.07 434.141 127.478C434.354 127.911 434.687 128.274 435.099 128.525C435.786 128.857 436.594 128.521 437.281 128.187C436.88 126.845 436.654 125.457 436.607 124.057C436.964 124.151 437.34 124.136 437.688 124.015C438.036 123.893 438.34 123.671 438.56 123.375C438.989 122.777 439.292 122.096 439.449 121.377L440.73 116.967C441.126 115.604 441.713 114.039 443.075 113.637C443.564 113.567 444.045 113.455 444.514 113.302C444.823 113.119 445.072 112.85 445.23 112.528C445.388 112.205 445.448 111.844 445.403 111.488C445.3 110.776 445.003 110.106 444.544 109.551C442.618 106.961 439.405 105.425 437.902 102.568C436.61 100.115 436.835 97.1633 437.261 94.4244C437.687 91.6855 438.279 88.8696 437.624 86.1763C436.961 83.719 435.46 81.5702 433.381 80.1007C431.307 78.6486 428.936 77.6744 426.44 77.2485C425.288 76.9555 424.08 76.9637 422.932 77.2723C422.067 77.5645 421.326 78.1415 420.482 78.489C418.563 79.2785 416.351 78.8069 414.338 79.3095C412.487 79.8405 410.88 81.0011 409.795 82.5908C408.723 84.1729 407.919 85.9204 407.415 87.7633C407.045 88.9726 407.639 89.4564 406.558 90.114" fill="#3F3D56"/>
<path d="M405.513 141.832C405.513 141.832 414.22 136.031 416.694 139.597C419.168 143.164 409.034 147.539 409.034 147.539L405.513 141.832Z" fill="#FBBEBE"/>
<path d="M408.358 114.262C408.326 114.822 408.219 115.507 407.907 115.609C408.72 115.59 409.521 116.187 410.327 116.009C410.927 115.876 411.492 115.294 411.854 114.434C411.89 114.306 411.961 114.19 412.059 114.098C412.143 114.049 412.235 114.098 412.32 114.148C413.895 115.088 415.363 116.196 416.7 117.453C417.146 117.868 417.641 118.318 418.13 118.101C418.152 116.526 417.833 114.965 417.195 113.524C416.68 112.37 415.805 111.413 414.701 110.797C413.784 110.349 412.787 110.09 411.768 110.034C411.328 110.025 410.896 109.918 410.503 109.72C410.071 109.466 408.69 107.816 408.38 109.017C408.23 109.597 408.423 110.833 408.428 111.474C408.434 112.405 408.411 113.336 408.358 114.262Z" fill="#3F3D56"/>
<g opacity="0.1">
<path opacity="0.1" d="M435.914 127.574C435.502 127.323 435.169 126.96 434.956 126.526C432.263 122.119 429.809 117.569 427.606 112.897C427.032 111.81 426.623 110.645 426.392 109.438C426.206 108.153 426.409 106.848 426.477 105.551C426.578 103.622 426.38 101.689 425.889 99.8198C425.624 98.5497 425.031 97.3711 424.169 96.4006C423.239 95.5479 422.096 94.9625 420.86 94.7065C418.06 93.9963 415.124 94.1637 412.235 94.0893C410.734 94.0506 409.13 93.9068 407.958 92.9702C407.503 92.603 407.167 92.1094 406.994 91.5517C406.82 90.994 406.815 90.3972 406.98 89.8369C406.905 89.9082 406.823 89.9731 406.737 90.031C405.617 91.0051 406.031 92.9909 407.196 93.9213C408.369 94.8579 409.973 95.0017 411.474 95.0404C414.363 95.1148 417.298 94.9474 420.099 95.6576C421.335 95.9136 422.478 96.499 423.408 97.3517C424.269 98.3222 424.862 99.5009 425.127 100.771C425.618 102.64 425.817 104.573 425.716 106.502C425.647 107.799 425.444 109.104 425.631 110.39C425.862 111.596 426.271 112.761 426.844 113.848C429.048 118.52 431.501 123.07 434.195 127.478C434.408 127.911 434.74 128.274 435.153 128.525C435.84 128.857 436.648 128.521 437.334 128.187C437.277 127.996 437.225 127.803 437.175 127.61C436.765 127.756 436.315 127.743 435.914 127.574Z" fill="black"/>
<path opacity="0.1" d="M406.612 90.1138C406.658 90.0858 406.697 90.0584 406.738 90.031C406.745 90.0245 406.751 90.0169 406.758 90.0105L406.612 90.1138Z" fill="black"/>
<path opacity="0.1" d="M407.498 89.0799C407.458 89.1074 407.419 89.1348 407.373 89.1628L407.519 89.0595C407.511 89.0659 407.505 89.0734 407.498 89.0799C408.401 88.463 407.875 87.9698 408.23 86.8121C408.727 85.0031 409.511 83.2853 410.552 81.7239C410.301 81.9996 410.066 82.289 409.848 82.5907C408.776 84.1728 407.972 85.9203 407.468 87.7632C407.357 88.2699 407.295 88.7861 407.282 89.3047C407.348 89.2237 407.42 89.1485 407.498 89.0799Z" fill="black"/>
<path opacity="0.1" d="M445.33 112.351C444.861 112.504 444.379 112.616 443.891 112.686C443.195 112.925 442.622 113.43 442.299 114.091C442.541 113.883 442.824 113.729 443.129 113.637C443.618 113.567 444.099 113.455 444.568 113.302C444.757 113.201 444.924 113.063 445.059 112.897C445.195 112.732 445.296 112.541 445.357 112.335C445.348 112.34 445.339 112.346 445.33 112.351Z" fill="black"/>
<path opacity="0.1" d="M437.422 123.106C437.433 123.436 437.454 123.765 437.486 124.093C437.928 123.98 438.323 123.729 438.613 123.375C438.76 123.194 438.887 122.996 438.991 122.787C438.776 122.965 438.52 123.088 438.247 123.143C437.973 123.199 437.69 123.186 437.422 123.106Z" fill="black"/>
</g>
<path opacity="0.1" d="M403.406 140.7C403.406 140.7 405.702 139.771 407.051 139.978L403.406 140.7Z" fill="black"/>
<path opacity="0.1" d="M410.026 151.153C410.026 151.153 411.192 152.96 417.083 153.721C422.974 154.482 410.026 151.153 410.026 151.153Z" fill="black"/>
<path opacity="0.1" d="M407.907 157.906C407.907 157.906 413.206 162.567 421.706 160.855C430.206 159.143 407.907 157.906 407.907 157.906Z" fill="black"/>
<path d="M384.128 266.785L471.39 253.265" stroke="#3F3D56" stroke-miterlimit="10"/>
<path d="M79.1074 119.981C79.1074 131.378 86.5981 141.225 97.4601 145.893L81.9267 108.265C80.0783 111.894 79.1124 115.909 79.1074 119.981ZM133.654 118.529C133.654 114.97 132.209 112.506 130.969 110.588C129.318 108.217 127.772 106.209 127.772 103.837C127.772 101.191 130.041 98.7271 133.239 98.7271C133.384 98.7271 133.521 98.743 133.662 98.7501C127.412 93.7918 119.65 91.1243 111.671 91.1924C100.295 91.1924 90.2861 96.3529 84.4635 104.169C85.2274 104.189 85.9481 104.203 86.5591 104.203C89.9652 104.203 95.2376 103.838 95.2376 103.838C96.993 103.746 97.1999 106.026 95.447 106.209C95.447 106.209 93.6823 106.393 91.7193 106.484L103.578 137.668L110.705 118.772L105.631 106.483C103.877 106.392 102.216 106.209 102.216 106.209C100.461 106.118 100.667 103.746 102.421 103.837C102.421 103.837 107.799 104.203 110.999 104.203C114.404 104.203 119.677 103.837 119.677 103.837C121.434 103.746 121.64 106.025 119.886 106.209C119.886 106.209 118.118 106.392 116.159 106.483L127.927 137.432L131.175 127.835C132.583 123.853 133.654 120.993 133.654 118.529H133.654Z" fill="#FFD339"/>
<path d="M112.243 122.5L102.473 147.6C109.057 149.307 115.986 149.148 122.485 147.141C122.395 147.017 122.318 146.884 122.254 146.744L112.243 122.5ZM140.245 106.169C140.393 107.149 140.466 108.138 140.464 109.129C140.464 112.051 139.847 115.335 137.988 119.441L128.042 144.867C137.723 139.876 144.234 130.603 144.234 119.981C144.226 115.094 142.844 110.308 140.245 106.169L140.245 106.169Z" fill="#FFD339"/>
</g>
<defs>
<clipPath id="clip0_344_3249">
<rect width="486" height="267" fill="white"/>
</clipPath>
</defs>
</svg>
