<svg width="488" height="310" viewBox="0 0 488 310" fill="none" xmlns="http://www.w3.org/2000/svg">
<g clip-path="url(#clip0_344_3526)">
<path d="M27.3572 309.096C19.8288 308.477 13.1822 303.04 9.4023 296.512C8.13471 294.322 7.26619 291.45 8.70164 289.367C9.11252 288.77 9.68035 288.299 10.3426 288.004C11.0048 287.709 11.7357 287.603 12.4547 287.696C13.1737 287.789 13.853 288.079 14.4176 288.533C14.9823 288.987 15.4104 289.588 15.6549 290.269C15.1925 287.711 14.9939 285.113 15.062 282.515C15.1198 280.315 15.5362 277.828 17.3686 276.605C19.4944 275.185 22.5585 276.312 24.1047 278.346C25.6509 280.379 26.0705 283.024 26.4416 285.55C26.1386 284.481 26.1091 283.353 26.3557 282.27C26.6023 281.186 27.1171 280.182 27.8531 279.348C28.5891 278.515 29.5227 277.879 30.5685 277.499C31.6144 277.118 32.739 277.006 33.8395 277.172C36.9531 277.642 39.3922 280.333 40.3439 283.329C41.2957 286.325 40.9985 289.574 40.386 292.658C39.6677 296.273 38.502 299.86 36.4033 302.892C34.3046 305.925 31.1873 308.37 27.5705 309.111L27.3572 309.096Z" fill="#F2F2F2"/>
<path d="M488 65.0249C488 78.5106 483.802 91.6629 475.985 102.662C468.168 113.661 457.12 121.962 444.37 126.418C443.964 126.559 443.552 126.7 443.141 126.829V60.7553H357.864C357.889 60.3443 357.919 59.9333 357.956 59.5284H443.141V46.6216C443.14 45.8082 442.816 45.0283 442.24 44.4531C441.664 43.878 440.883 43.5547 440.068 43.5544H361.361C361.502 43.1434 361.65 42.7324 361.809 42.3275C367.141 28.0406 377.332 16.0781 390.602 8.52972C403.872 0.981344 419.376 -1.67293 434.407 1.03059C449.438 3.73411 463.039 11.6236 472.835 23.3206C482.631 35.0177 487.999 49.7787 488 65.0249Z" fill="#F2F2F2"/>
<path d="M440.068 42.3275H140.799C139.658 42.3288 138.565 42.7816 137.758 43.5866C136.952 44.3916 136.498 45.4831 136.497 46.6216V249.058C136.498 250.196 136.952 251.287 137.758 252.092C138.565 252.898 139.658 253.35 140.799 253.352H440.068C441.208 253.35 442.301 252.898 443.108 252.092C443.914 251.287 444.368 250.196 444.369 249.058V46.6216C444.368 45.4831 443.914 44.3916 443.108 43.5866C442.301 42.7816 441.208 42.3288 440.068 42.3275ZM443.14 249.058C443.14 249.871 442.816 250.651 442.24 251.226C441.664 251.801 440.882 252.124 440.068 252.125H140.799C139.984 252.124 139.203 251.801 138.626 251.226C138.05 250.651 137.726 249.871 137.726 249.058V46.6216C137.726 45.8082 138.05 45.0283 138.626 44.4531C139.203 43.878 139.984 43.5547 140.799 43.5544H440.068C440.882 43.5547 441.664 43.878 442.24 44.4531C442.816 45.0283 443.14 45.8082 443.14 46.6216V249.058Z" fill="#3F3D56"/>
<path d="M443.755 59.5284H137.112V60.7553H443.755V59.5284Z" fill="#3F3D56"/>
<path d="M147.558 55.2098C149.595 55.2098 151.245 53.5619 151.245 51.5292C151.245 49.4964 149.595 47.8485 147.558 47.8485C145.522 47.8485 143.871 49.4964 143.871 51.5292C143.871 53.5619 145.522 55.2098 147.558 55.2098Z" fill="#3F3D56"/>
<path d="M158.159 55.2098C160.195 55.2098 161.846 53.5619 161.846 51.5292C161.846 49.4964 160.195 47.8485 158.159 47.8485C156.122 47.8485 154.472 49.4964 154.472 51.5292C154.472 53.5619 156.122 55.2098 158.159 55.2098Z" fill="#3F3D56"/>
<path d="M168.759 55.2098C170.796 55.2098 172.446 53.5619 172.446 51.5292C172.446 49.4964 170.796 47.8485 168.759 47.8485C166.723 47.8485 165.072 49.4964 165.072 51.5292C165.072 53.5619 166.723 55.2098 168.759 55.2098Z" fill="#3F3D56"/>
<path d="M220.686 84.655H166.608C165.468 84.6563 164.374 85.1091 163.568 85.9141C162.762 86.7192 162.308 87.8106 162.307 88.9491V142.932C162.308 144.071 162.762 145.162 163.568 145.967C164.374 146.772 165.468 147.225 166.608 147.226H220.686C221.826 147.225 222.919 146.772 223.726 145.967C224.532 145.162 224.986 144.071 224.987 142.932V88.9491C224.986 87.8106 224.532 86.7192 223.726 85.9141C222.919 85.1091 221.826 84.6563 220.686 84.655ZM223.758 142.932C223.758 143.745 223.434 144.525 222.858 145.101C222.282 145.676 221.5 145.999 220.686 145.999H166.608C165.793 145.999 165.012 145.676 164.436 145.101C163.86 144.525 163.536 143.745 163.536 142.932V88.9491C163.536 88.1357 163.86 87.3558 164.436 86.7806C165.012 86.2055 165.793 85.8822 166.608 85.8819H220.686C221.5 85.8822 222.282 86.2055 222.858 86.7806C223.434 87.3558 223.758 88.1357 223.758 88.9491V142.932Z" fill="#3F3D56"/>
<path d="M317.779 84.9618H263.701C262.643 84.9638 261.628 85.3846 260.879 86.1319C260.131 86.8793 259.709 87.8923 259.707 88.9492V142.932C259.709 143.989 260.131 145.002 260.879 145.749C261.628 146.497 262.643 146.917 263.701 146.919H317.779C318.837 146.917 319.852 146.497 320.601 145.749C321.35 145.002 321.771 143.989 321.773 142.932V88.9492C321.771 87.8923 321.35 86.8793 320.601 86.1319C319.852 85.3846 318.837 84.9638 317.779 84.9618Z" fill="#FFD339"/>
<path d="M414.872 84.9618H360.795C359.736 84.9638 358.722 85.3846 357.973 86.1319C357.224 86.8793 356.803 87.8923 356.801 88.9492V142.932C356.803 143.989 357.224 145.002 357.973 145.749C358.722 146.497 359.736 146.917 360.795 146.919H414.872C415.931 146.917 416.946 146.497 417.695 145.749C418.443 145.002 418.865 143.989 418.867 142.932V88.9492C418.865 87.8923 418.443 86.8793 417.695 86.1319C416.946 85.3846 415.931 84.9638 414.872 84.9618Z" fill="#E6E6E6"/>
<path d="M220.686 165.936H166.609C165.55 165.938 164.535 166.359 163.786 167.106C163.038 167.854 162.616 168.867 162.614 169.923V223.906C162.616 224.963 163.038 225.976 163.786 226.724C164.535 227.471 165.55 227.892 166.609 227.894H220.686C221.745 227.892 222.76 227.471 223.508 226.724C224.257 225.976 224.678 224.963 224.68 223.906V169.923C224.678 168.867 224.257 167.854 223.508 167.106C222.76 166.359 221.745 165.938 220.686 165.936Z" fill="#E6E6E6"/>
<path d="M317.779 165.936H263.701C262.643 165.938 261.628 166.359 260.879 167.106C260.131 167.854 259.709 168.867 259.707 169.923V223.906C259.709 224.963 260.131 225.976 260.879 226.724C261.628 227.471 262.643 227.892 263.701 227.894H317.779C318.837 227.892 319.852 227.471 320.601 226.724C321.35 225.976 321.771 224.963 321.773 223.906V169.923C321.771 168.867 321.35 167.854 320.601 167.106C319.852 166.359 318.837 165.938 317.779 165.936Z" fill="#FFD339"/>
<path d="M414.872 165.936H360.795C359.736 165.938 358.722 166.359 357.973 167.106C357.224 167.854 356.803 168.867 356.801 169.923V223.906C356.803 224.963 357.224 225.976 357.973 226.724C358.722 227.471 359.736 227.892 360.795 227.894H414.872C415.931 227.892 416.946 227.471 417.695 226.724C418.443 225.976 418.865 224.963 418.867 223.906V169.923C418.865 168.867 418.443 167.854 417.695 167.106C416.946 166.359 415.931 165.938 414.872 165.936Z" fill="#E6E6E6"/>
<path d="M207.474 174.831H153.397C152.338 174.83 151.322 174.409 150.574 173.662C149.825 172.914 149.404 171.901 149.402 170.844V116.861C149.404 115.804 149.825 114.79 150.574 114.042C151.322 113.295 152.338 112.874 153.397 112.873H207.474C208.533 112.875 209.548 113.295 210.297 114.043C211.046 114.79 211.467 115.804 211.468 116.861V170.844C211.467 171.901 211.046 172.914 210.297 173.662C209.548 174.409 208.533 174.83 207.474 174.831Z" fill="#FFD339"/>
<path d="M124.59 301.868L131.792 299.661L126.694 270.88L116.064 274.136L124.59 301.868Z" fill="#A0616A"/>
<path d="M147.735 302.082L125.1 309.017L122.416 300.286L136.306 296.031C137.454 295.679 138.661 295.556 139.857 295.67C141.053 295.784 142.215 296.131 143.276 296.693C144.337 297.255 145.277 298.02 146.043 298.945C146.808 299.869 147.383 300.935 147.735 302.082Z" fill="#2F2E41"/>
<path d="M63.1399 302.033L70.6739 302.032L74.2577 273.024L63.1387 273.025L63.1399 302.033Z" fill="#A0616A"/>
<path d="M85.2041 309.016L61.5264 309.017L61.526 299.884L76.0555 299.884C77.2568 299.884 78.4464 300.12 79.5564 300.579C80.6663 301.038 81.6748 301.71 82.5244 302.558C83.3739 303.406 84.0478 304.413 84.5076 305.521C84.9674 306.629 85.204 307.816 85.2041 309.015L85.2041 309.016Z" fill="#2F2E41"/>
<path d="M62.5994 217.944C61.9805 217.402 61.488 216.732 61.1568 215.98C60.8255 215.227 60.6635 214.412 60.6821 213.59C60.7007 212.769 60.8996 211.961 61.2646 211.225C61.6296 210.489 62.152 209.841 62.7949 209.328L68.6361 135.902L80.5151 138.865L71.0039 210.489C71.7959 211.625 72.1432 213.01 71.98 214.384C71.8168 215.758 71.1545 217.024 70.1185 217.943C69.0826 218.862 67.7449 219.37 66.3591 219.37C64.9733 219.37 63.6356 218.863 62.5994 217.944Z" fill="#A0616A"/>
<path d="M86.3881 107.424C94.7238 107.424 101.481 100.678 101.481 92.3569C101.481 84.0358 94.7238 77.2902 86.3881 77.2902C78.0523 77.2902 71.2949 84.0358 71.2949 92.3569C71.2949 100.678 78.0523 107.424 86.3881 107.424Z" fill="#A0616A"/>
<path d="M73.2643 133.644C69.8587 128.976 69.7537 122.548 73.4223 118.084C75.8163 115.171 79.8209 112.84 86.5068 112.84C104.328 112.84 111.087 126.949 111.087 126.949C111.087 126.949 118.462 140.444 114.16 152.713C109.858 164.982 109.858 166.209 109.858 166.209L81.5907 163.755C81.5907 163.755 86.3594 151.59 73.2643 133.644Z" fill="#CCCCCC"/>
<path d="M64.5469 145.856L70.6365 125.968C71.0444 124.636 71.7403 123.41 72.675 122.377C73.6097 121.343 74.7604 120.527 76.0459 119.986C77.3313 119.445 78.7201 119.192 80.114 119.246C81.508 119.3 82.8731 119.658 84.113 120.297C86.264 121.409 87.9108 123.296 88.7197 125.575C89.5285 127.855 89.4387 130.356 88.4686 132.572L80.7267 150.172L64.5469 145.856Z" fill="#CCCCCC"/>
<path d="M109.243 163.142L133.209 287.057L120.304 290.738L88.9641 209.15L74.8303 292.578L61.311 294.418C61.311 294.418 55.3807 184.033 81.59 163.755L109.243 163.142Z" fill="#2F2E41"/>
<path d="M143.737 157.334C143.518 157.594 143.32 157.871 143.145 158.162L112.705 159.635L106.844 141.772L96.666 146.601L106.245 173.206L143.891 165.857C144.776 166.821 145.934 167.493 147.211 167.785C148.487 168.076 149.823 167.972 151.039 167.488C152.255 167.003 153.295 166.16 154.02 165.071C154.745 163.982 155.12 162.698 155.096 161.391C155.073 160.084 154.651 158.815 153.887 157.753C153.123 156.691 152.053 155.886 150.82 155.446C149.587 155.005 148.249 154.95 146.984 155.287C145.718 155.625 144.586 156.339 143.737 157.334Z" fill="#A0616A"/>
<path d="M92.4081 128.73C92.245 127.347 92.3883 125.945 92.8277 124.624C93.2672 123.302 93.9921 122.093 94.9512 121.082C95.9103 120.07 97.0802 119.282 98.3782 118.771C99.6762 118.261 101.071 118.042 102.463 118.129C104.88 118.284 107.148 119.351 108.807 121.113C110.466 122.875 111.391 125.202 111.395 127.62V146.842L94.8421 149.384L92.4081 128.73Z" fill="#CCCCCC"/>
<path d="M89.7069 107.56C87.4415 107.55 85.694 105.17 85.7955 102.91C85.8971 100.651 87.417 98.6637 89.2483 97.3325C91.0795 96.0013 93.2271 95.1904 95.2693 94.2117C97.3115 93.2329 99.3358 92.0121 100.597 90.1334C101.358 88.9037 101.813 87.5094 101.922 86.0678C102.032 84.6262 101.793 83.1794 101.226 81.8492C100.052 79.1888 98.0375 76.9857 95.4901 75.5773C91.7061 73.3661 87.2265 72.6591 82.9438 73.5971C78.661 74.535 74.8893 77.049 72.38 80.6384L69.7941 87.6672C67.1591 90.8301 66.7412 95.5274 68.3609 99.3101C69.9807 103.093 73.4295 105.939 77.3212 107.292C81.2697 108.558 85.4965 108.685 89.5139 107.657" fill="#2F2E41"/>
<path d="M75.9136 84.1512C74.802 82.3726 72.8752 81.2415 70.8833 80.5776C68.5757 79.8086 66.1213 79.5816 63.7115 79.9143C61.3016 80.2471 59.0011 81.1306 56.9892 82.4961C54.9774 83.8616 53.3084 85.6722 52.1122 87.7869C50.916 89.9017 50.2249 92.2635 50.0927 94.6885C49.8816 98.562 51.0966 102.35 51.8106 106.163C52.5245 109.976 52.6666 114.188 50.5604 117.448C48.9562 119.931 46.281 121.494 43.6404 122.829C41.4397 123.942 39.0592 124.986 36.6023 124.764C34.1454 124.543 31.6761 122.6 31.7413 120.138C30.9188 121.903 30.3634 123.781 30.0934 125.709C29.9205 127.645 30.3985 129.734 31.7993 131.084C33.8353 133.046 37.0611 132.902 39.8591 132.479C45.9163 131.562 52.05 129.844 56.8354 126.025C61.6208 122.207 64.7962 115.919 63.536 109.934C63.0096 107.434 61.7724 105.151 60.7727 102.8C59.773 100.448 58.9925 97.8756 59.4517 95.3623C59.7236 94.0675 60.2768 92.8481 61.0723 91.7901C61.8679 90.732 62.8864 89.8612 64.056 89.2391C66.4213 88.0114 69.1278 87.6017 71.7514 88.0742C73.4714 88.356 75.6192 88.7935 76.6393 87.3826C76.9097 86.9356 77.0478 86.4214 77.0376 85.8994C77.0274 85.3774 76.8694 84.8689 76.5818 84.4328C75.9932 83.5702 75.2436 82.8288 74.3741 82.2492" fill="#2F2E41"/>
<path d="M189.569 310H0.731872C0.635606 310 0.540225 309.982 0.451207 309.945C0.362189 309.908 0.281281 309.855 0.213112 309.787C0.144943 309.719 0.090855 309.638 0.0539511 309.55C0.0170472 309.461 -0.00195312 309.366 -0.00195312 309.27C-0.00195312 309.173 0.0170472 309.078 0.0539511 308.99C0.090855 308.901 0.144943 308.82 0.213112 308.752C0.281281 308.685 0.362189 308.631 0.451207 308.594C0.540225 308.558 0.635606 308.539 0.731872 308.539H189.569C189.665 308.539 189.76 308.558 189.849 308.594C189.938 308.631 190.019 308.685 190.087 308.752C190.156 308.82 190.21 308.901 190.247 308.99C190.284 309.078 190.303 309.173 190.303 309.27C190.303 309.366 190.284 309.461 190.247 309.55C190.21 309.638 190.156 309.719 190.087 309.787C190.019 309.855 189.938 309.908 189.849 309.945C189.76 309.982 189.665 310 189.569 310Z" fill="#3F3D56"/>
</g>
<defs>
<clipPath id="clip0_344_3526">
<rect width="488" height="310" fill="white"/>
</clipPath>
</defs>
</svg>
